<?xml version="1.0" encoding="UTF-8" standalone="no"?>
<svg width="82px" height="79px" viewBox="0 0 82 79" version="1.1" xmlns="http://www.w3.org/2000/svg" xmlns:xlink="http://www.w3.org/1999/xlink">
    <!-- Generator: sketchtool 43.2 (39069) - http://www.bohemiancoding.com/sketch -->
    <title>ICON Calendar</title>
    <desc>Created with sketchtool.</desc>
    <defs>
        <path d="M53,63.1191 L64,63.1191 L64,55.1191 L53,55.1191 L53,63.1191 Z M53,52.1191 L64,52.1191 L64,44.1191 L53,44.1191 L53,52.1191 Z M35,63.1191 L46,63.1191 L46,55.1191 L35,55.1191 L35,63.1191 Z M35,52.1191 L46,52.1191 L46,44.1191 L35,44.1191 L35,52.1191 Z M16,63.1191 L27,63.1191 L27,55.1191 L16,55.1191 L16,63.1191 Z M16,52.1191 L27,52.1191 L27,44.1191 L16,44.1191 L16,52.1191 Z M53.5,25.9001 C55.544,25.9001 57,24.2441 57,22.2001 L57,3.7001 C57,1.6561 55.544,0.0001 53.5,0.0001 C51.456,0.0001 50,1.6561 50,3.7001 L50,22.2001 C50,24.2441 51.456,25.9001 53.5,25.9001 L53.5,25.9001 Z M27.5,25.9001 C29.544,25.9001 31,24.2441 31,22.2001 L31,3.7001 C31,1.6561 29.544,0.0001 27.5,0.0001 C25.456,0.0001 24,1.6561 24,3.7001 L24,22.2001 C24,24.2441 25.456,25.9001 27.5,25.9001 L27.5,25.9001 Z M74,65.3121 L74,37.1191 L7,37.1191 L7,65.3121 C7,67.6131 8.042,70.1191 11.04,70.1191 L67.666,70.1191 C70.649,70.1191 74,67.8291 74,65.3121 L74,65.3121 Z M81,23.4861 L81,65.3121 C81,71.9111 74.758,78.1191 67.666,78.1191 L11.04,78.1191 C4.398,78.1191 0,72.4901 0,65.3121 L0,23.4861 C0,16.3081 4.398,11.1191 11.04,11.1191 L20,11.1191 L20,18.1191 L11.04,18.1191 C8.042,18.1191 7,21.1851 7,23.4861 L7,29.1191 L74,29.1191 L74,23.4861 C74,20.9701 70.649,18.1191 67.666,18.1191 L61,18.1191 L61,11.1191 L67.666,11.1191 C74.758,11.1191 81,16.8881 81,23.4861 L81,23.4861 Z M35,18.1191 L46,18.1191 L46,11.1191 L35,11.1191 L35,18.1191 Z" id="path-cal"></path>
    </defs>
    <g id="TranZform-Icon-Library" stroke="none" stroke-width="1" fill="none" fill-rule="evenodd">
        <g id="TranZform-Icon-Library-03" transform="translate(-910.000000, -579.000000)">
            <g id="53-Calendar" transform="translate(860.200000, 550.000000)">
                <g id="ICON-Calendar" transform="translate(50.000000, 28.000000)">
                    <g id="contents" transform="translate(0.000000, 1.000000)">
                        <mask id="mask-cal" fill="white">
                            <use xlink:href="#path-cal"></use>
                        </mask>
                        <use id="Mask" fill="#333333" xlink:href="#path-cal"></use>
                        <g id="MASK-DefaultGrey" mask="url(#mask-cal)" fill="#5D5D5D">
                            <g transform="translate(0.000000, -1.000000)" id="Rectangle">
                                <rect x="0" y="0" width="80" height="80"></rect>
                            </g>
                        </g>
                    </g>
                </g>
            </g>
        </g>
    </g>
</svg>
