<?xml version="1.0" encoding="UTF-8" standalone="no"?>
<svg width="59px" height="78px" viewBox="0 0 59 78" version="1.1" xmlns="http://www.w3.org/2000/svg" xmlns:xlink="http://www.w3.org/1999/xlink">
    <!-- Generator: sketchtool 44.1 (41455) - http://www.bohemiancoding.com/sketch -->
    <title>ICON Finance</title>
    <desc>Created with sketchtool.</desc>
    <defs>
        <path d="M45.8327,63.7187 C45.8327,64.5467 45.1607,65.2187 44.3327,65.2187 L38.3327,65.2187 C37.5047,65.2187 36.8327,64.5467 36.8327,63.7187 C36.8327,62.8907 37.5047,62.2187 38.3327,62.2187 L44.3327,62.2187 C45.1607,62.2187 45.8327,62.8907 45.8327,63.7187 L45.8327,63.7187 Z M45.8327,56.7187 C45.8327,57.5467 45.1607,58.2187 44.3327,58.2187 L38.3327,58.2187 C37.5047,58.2187 36.8327,57.5467 36.8327,56.7187 C36.8327,55.8907 37.5047,55.2187 38.3327,55.2187 L44.3327,55.2187 C45.1607,55.2187 45.8327,55.8907 45.8327,56.7187 L45.8327,56.7187 Z M33.8327,63.7187 C33.8327,64.5467 33.1607,65.2187 32.3327,65.2187 L14.3327,65.2187 C13.5047,65.2187 12.8327,64.5467 12.8327,63.7187 C12.8327,62.8907 13.5047,62.2187 14.3327,62.2187 L32.3327,62.2187 C33.1607,62.2187 33.8327,62.8907 33.8327,63.7187 L33.8327,63.7187 Z M33.8327,56.7187 C33.8327,57.5467 33.1607,58.2187 32.3327,58.2187 L14.3327,58.2187 C13.5047,58.2187 12.8327,57.5467 12.8327,56.7187 C12.8327,55.8907 13.5047,55.2187 14.3327,55.2187 L32.3327,55.2187 C33.1607,55.2187 33.8327,55.8907 33.8327,56.7187 L33.8327,56.7187 Z M29.9997,41.9167 L29.9997,33.0387 C32.0127,33.5187 33.5187,35.3207 33.5187,37.4787 C33.5187,39.6357 32.0127,41.4377 29.9997,41.9167 L29.9997,41.9167 Z M25.0567,25.0847 C25.0567,23.6757 25.8477,22.4597 26.9997,21.8177 L26.9997,28.3507 C25.8477,27.7097 25.0567,26.4947 25.0567,25.0847 L25.0567,25.0847 Z M29.9997,28.9757 L29.9997,21.5447 C31.4827,22.0467 32.5597,23.4357 32.5597,25.0847 C32.5597,26.1887 33.4547,27.0847 34.5597,27.0847 C35.6637,27.0847 36.5597,26.1887 36.5597,25.0847 C36.5597,21.2167 33.7087,18.0107 29.9997,17.4337 L29.9997,14.9507 C29.9997,14.1227 29.3277,13.4507 28.4997,13.4507 C27.6717,13.4507 26.9997,14.1227 26.9997,14.9507 L26.9997,17.5547 C23.5967,18.3727 21.0567,21.4337 21.0567,25.0847 C21.0567,28.7347 23.5967,31.7967 26.9997,32.6137 L26.9997,41.6007 C25.4527,40.8667 24.3717,39.3017 24.3717,37.4787 C24.3717,36.3737 23.4767,35.4787 22.3717,35.4787 C21.2677,35.4787 20.3717,36.3737 20.3717,37.4787 C20.3717,41.5357 23.2077,44.9367 26.9997,45.8207 L26.9997,46.9507 C26.9997,47.7787 27.6717,48.4507 28.4997,48.4507 C29.3277,48.4507 29.9997,47.7787 29.9997,46.9507 L29.9997,45.9797 C34.2307,45.4577 37.5187,41.8477 37.5187,37.4787 C37.5187,33.1087 34.2307,29.4987 29.9997,28.9757 L29.9997,28.9757 Z M49.9447,73.2187 L7.9447,73.2187 C5.7387,73.2187 3.9997,71.0317 3.9997,68.8257 L3.9997,7.8257 C3.9997,5.6197 5.7387,4.2187 7.9447,4.2187 L37.9997,4.2187 L37.9997,12.7007 C37.9997,17.1117 41.4087,20.2187 45.8197,20.2187 L53.9997,20.2187 L53.9997,68.8257 C53.9997,71.0317 52.1507,73.2187 49.9447,73.2187 L49.9447,73.2187 Z M41.9997,6.8137 L51.2677,16.2187 L45.8197,16.2187 C43.6137,16.2187 41.9997,14.9067 41.9997,12.7007 L41.9997,6.8137 Z M57.4187,17.3187 L41.2797,0.4437 C41.2747,0.4387 41.2607,0.4347 41.2547,0.4287 C41.1947,0.3667 41.1227,0.3147 41.0547,0.2617 C41.0197,0.2337 40.9867,0.2007 40.9497,0.1757 C40.8497,0.1077 40.7417,0.0497 40.6307,-0.0003 C40.6217,-0.0033 40.6137,0.1867 40.6057,0.1827 C40.3647,0.0797 40.0987,0.2187 39.8197,0.2187 L7.9447,0.2187 C3.5337,0.2187 -0.0003,3.4147 -0.0003,7.8257 L-0.0003,68.8257 C-0.0003,73.2367 3.5337,77.2187 7.9447,77.2187 L49.9447,77.2187 C54.3557,77.2187 57.9997,73.2367 57.9997,68.8257 L57.9997,18.7007 C57.9997,18.1867 57.7747,17.6917 57.4187,17.3187 L57.4187,17.3187 Z" id="path-finance-icon"></path>
    </defs>
    <g id="TranZform-Icon-Library" stroke="none" stroke-width="1" fill="none" fill-rule="evenodd">
        <g id="TranZform-Icon-Library-01" transform="translate(-300.000000, -159.000000)">
            <g id="02-Finance" transform="translate(239.800000, 130.000000)">
                <g id="ICON-Finance" transform="translate(50.000000, 28.000000)">
                    <g id="Contents" transform="translate(11.000000, 1.000000)">
                        <mask id="mask-2" fill="white">
                            <use xlink:href="#path-finance-icon"></use>
                        </mask>
                        <use id="Mask" fill="#424242" xlink:href="#path-finance-icon"></use>
                        <g id="MASK-DefaultGrey" mask="url(#mask-2)" fill="#5D5D5D">
                            <g transform="translate(-11.000000, -3.000000)" id="Rectangle">
                                <rect x="0" y="0" width="80" height="80"></rect>
                            </g>
                        </g>
                    </g>
                </g>
            </g>
        </g>
    </g>
</svg>