<?xml version="1.0" encoding="UTF-8"?>
<svg width="20px" height="21px" viewBox="0 0 80 80" version="1.1" xmlns="http://www.w3.org/2000/svg" xmlns:xlink="http://www.w3.org/1999/xlink">
    <!-- Generator: Sketch 46.2 (44496) - http://www.bohemiancoding.com/sketch -->
    <title>ICON CreateClaim</title>
    <desc>Created with Sketch.</desc>
    <defs></defs>
    <g id="TranZform-Icon-Library" stroke="none" stroke-width="1" fill="none" fill-rule="evenodd">
        <g id="TZF-Provider-Icon-Library-03" transform="translate(-703.000000, -578.000000)" fill="#5D5D5D">
            <g id="52-Create-Claim" transform="translate(653.000000, 550.000000)">
                <g id="ICON-CreateClaim" transform="translate(50.000000, 28.000000)">
                    <g id="Create-Claim">
                        <path d="M7.3968254,67.3060317 L7.3968254,45.3930159 L7.3968254,29.2596825 C7.3968254,29.0349206 7.42730159,28.7822222 7.47174603,28.52 L15.6355556,28.52 C22.5688889,28.52 28.2107937,22.8793651 28.2107937,15.9453968 L28.2107937,7.7815873 C28.4736508,7.73714286 28.7269841,7.70603175 28.9504762,7.70603175 L40.7219048,7.70603175 L48.848254,7.70603175 C51.7034921,7.70603175 54.0260317,10.0292063 54.0260317,12.8838095 L54.0260317,21.76 L61.4228571,21.76 L61.4228571,12.8838095 C61.4228571,5.94984127 55.7809524,0.309206349 48.847619,0.309206349 L40.7225397,0.309206349 L28.9511111,0.309206349 C25.5492063,0.309206349 21.1663492,2.12380952 18.76,4.53015873 L4.22031746,19.0685714 C1.81460317,21.4768254 0,25.8577778 0,29.2596825 L0,45.392381 L0,67.3053968 C0,74.24 5.64190476,79.8806349 12.5752381,79.8806349 L30.711746,79.8806349 L30.711746,72.4844444 L12.5752381,72.4844444 C9.72063492,72.4844444 7.3968254,70.1606349 7.3968254,67.3060317 Z" id="Shape" fill-rule="nonzero"></path>
                        <path d="M62,50.2873067 L62,39 C62,35.6862915 59.3137085,33 56,33 C52.6862915,33 50,35.6862915 50,39 L50,50.2873067 L38.7126933,50.2873067 C35.3989848,50.2873067 32.7126933,52.9735982 32.7126933,56.2873067 C32.7126933,59.6010152 35.3989848,62.2873067 38.7126933,62.2873067 L50,62.2873067 L50,73.5746135 C50,76.888322 52.6862915,79.5746135 56,79.5746135 C59.3137085,79.5746135 62,76.888322 62,73.5746135 L62,62.2873067 L73.2873067,62.2873067 C76.6010152,62.2873067 79.2873067,59.6010152 79.2873067,56.2873067 C79.2873067,52.9735982 76.6010152,50.2873067 73.2873067,50.2873067 L62,50.2873067 Z" id="Combined-Shape" fill-rule="nonzero"></path>
                    </g>
                </g>
            </g>
        </g>
    </g>
</svg>
