<?xml version="1.0" encoding="UTF-8"?>
<svg width="80px" height="80px" viewBox="0 0 80 80" version="1.1" xmlns="http://www.w3.org/2000/svg" xmlns:xlink="http://www.w3.org/1999/xlink">
    <!-- Generator: Sketch 46.2 (44496) - http://www.bohemiancoding.com/sketch -->
    <title>ICON Estimated</title>
    <desc>Created with Sketch.</desc>
    <defs></defs>
    <g id="TranZform-Icon-Library" stroke="none" stroke-width="1" fill="none" fill-rule="evenodd">
        <g id="TZF-Provider-Icon-Library-03" transform="translate(-1117.000000, -578.000000)" fill="#5D5D5D">
            <g id="54-Estimated" transform="translate(1067.000000, 550.000000)">
                <g id="ICON-Estimated" transform="translate(50.000000, 28.000000)">
                    <path fill="#5D5D5D" d="M40,76 C20.1488608,76 4,59.8501266 4,40 C4,20.1488608 20.1488608,4 40,4 C59.8501266,4 76,20.1488608 76,40 C76,59.8501266 59.8501266,76 40,76 M0,40 C0,62.0911392 17.9078481,80 40,80 C62.0911392,80 80,62.0911392 80,40 C80,17.9078481 62.0911392,0 40,0 C17.9078481,0 0,17.9078481 0,40 Z" id="Fill-1"></path>
                    <path fill="#5D5D5D" d="M28.8999996,20 C33.3999996,20 47.1428571,20 51.0714286,20 C55,20 55,26.5306122 51.0714286,26.5306122 C47.1428571,26.5306122 33.3999996,26.5306122 28.8999996,26.5306122 C24.3999996,26.5306122 24.3999996,20 28.8999996,20 Z" id="Rectangle-5"></path>
                    <rect fill="#5D5D5D" id="Rectangle" x="25.5" y="34.6938776" width="7.34693878" height="6.53061224" rx="1.39999998"></rect>
                    <rect fill="#5D5D5D" id="Rectangle-Copy-3" x="25.5" y="43.6734694" width="7.34693878" height="6.53061224" rx="1.39999998"></rect>
                    <rect fill="#5D5D5D" id="Rectangle-Copy-6" x="25.5" y="53.4693878" width="7.34693878" height="6.53061224" rx="1.39999998"></rect>
                    <rect fill="#5D5D5D" id="Rectangle-Copy" x="36.1122449" y="34.6938776" width="7.34693878" height="6.53061224" rx="1.39999998"></rect>
                    <rect fill="#5D5D5D" id="Rectangle-Copy-4" x="36.1122449" y="43.6734694" width="7.34693878" height="6.53061224" rx="1.39999998"></rect>
                    <rect fill="#5D5D5D" id="Rectangle-Copy-7" x="36.1122449" y="53.4693878" width="7.34693878" height="6.53061224" rx="1.39999998"></rect>
                    <rect fill="#5D5D5D" id="Rectangle-Copy-2" x="46.7244898" y="34.6938776" width="7.34693878" height="6.53061224" rx="1.39999998"></rect>
                    <rect fill="#5D5D5D" id="Rectangle-Copy-5" x="46.7244898" y="43.6734694" width="7.34693878" height="6.53061224" rx="1.39999998"></rect>
                    <rect fill="#5D5D5D" id="Rectangle-Copy-8" x="46.7244898" y="53.4693878" width="7.34693878" height="6.53061224" rx="1.39999998"></rect>
                </g>
            </g>
        </g>
    </g>
</svg>
