<?xml version="1.0" encoding="UTF-8" standalone="no"?>
<svg width="27px" height="26px" viewBox="0 0 27 26" version="1.1" xmlns="http://www.w3.org/2000/svg" xmlns:xlink="http://www.w3.org/1999/xlink">
    <!-- Generator: sketchtool 44.1 (41455) - http://www.bohemiancoding.com/sketch -->
    <title>8811E73E-A756-49B0-9317-61D5BC8E5851</title>
    <desc>Created with sketchtool.</desc>
    <defs>
        <path d="M320.92866,36.3686003 C321.059674,36.3686003 321.190688,36.4168717 321.290654,36.5137451 L324.601826,39.7228027 L326.764238,37.6272941 L323.452725,34.4185672 C323.356853,34.3253306 323.302946,34.1990314 323.302946,34.0677728 C323.302946,33.9365142 323.356853,33.810215 323.452725,33.7169784 L324.928338,32.2873509 L316.349314,29.6638323 L319.056935,37.9770965 L320.566666,36.5137451 C320.666632,36.4168717 320.797646,36.3686003 320.92866,36.3686003 M324.601826,40.92 C324.470812,40.92 324.339798,40.871398 324.239832,40.7745245 L320.92866,37.5657976 L319.184537,39.2559585 C319.058299,39.3789515 318.874402,39.4292066 318.701082,39.3872171 C318.52742,39.3462195 318.388559,39.2199203 318.334311,39.0546072 L315.077046,29.0528352 C315.019727,28.8766114 315.068175,28.6838564 315.203283,28.5529284 C315.338391,28.4220005 315.537641,28.3753822 315.718809,28.4305967 L326.039909,31.5874153 C326.2105,31.6396543 326.340831,31.7742191 326.383138,31.9425078 C326.425786,32.1107966 326.374608,32.2886734 326.24803,32.4110051 L324.538366,34.0677728 L327.84988,37.2764997 C327.945752,37.3694057 328,37.4957048 328,37.6272941 C328,37.7585526 327.945752,37.8848518 327.84988,37.9777578 L324.963479,40.7745245 C324.863513,40.871398 324.732499,40.92 324.601826,40.92 Z M307.983904,25.2480885 C307.679911,24.8943185 307.375917,24.334899 307.155172,23.674308 C306.746095,22.4490074 306.77919,21.3414098 307.229209,21.2002324 C307.384106,21.1516304 307.568003,21.2240375 307.759747,21.3896812 C307.490554,20.8077792 307.338728,20.1538006 307.338728,19.4624613 C307.338728,17.0379797 309.196124,15.0727378 311.487162,15.0727378 C311.500809,15.0727378 311.514115,15.0737296 311.527762,15.0737296 C311.822202,15.0261195 312.128243,15 312.442813,15 C314.738968,15 316.600117,16.3406891 316.600117,17.9948118 C316.600117,18.0701945 316.594999,18.1445854 316.587493,18.2186457 C317.10336,18.7274793 317.444542,19.6095899 317.444542,20.6130403 C317.444542,20.8097629 317.431577,21.0018567 317.406671,21.187338 C317.453754,21.1827092 317.499473,21.1866767 317.542803,21.2002324 C317.992822,21.3414098 318.025917,22.4490074 317.616498,23.674308 C317.376988,24.3917667 317.038877,24.9902001 316.709295,25.3347126 C315.984965,27.4087305 314.311126,28.8611712 312.36127,28.8611712 C310.38412,28.8611712 308.691174,27.3680635 307.983904,25.2480885 Z M315.173395,33.1635102 L317.06525,39.2070259 C315.691651,39.5059119 314.217744,39.7386727 312.468504,39.7971936 C309.99971,39.8795195 307.617918,39.5188063 305.784405,38.8482965 C304.948168,38.5523861 304.818177,38.5120497 303.801455,38.207543 C303.494391,38.1159595 302.709672,37.70433 302.175381,37.4814879 C301.497452,37.1988026 300.99762,36.7514654 301.000009,36.6648413 C301.034127,35.4312751 301.348697,34.4737817 301.538735,34.0016476 C301.644843,33.3932954 301.959754,32.8140384 302.44935,32.281069 C302.44935,32.2807384 305.27502,30.07447 307.092838,29.3768488 C307.339854,31.7748804 309.615198,33.6670539 312.406067,33.7378079 C312.610435,34.7713453 312.332031,35.6590765 311.652055,36.0465704 C310.889172,36.4810132 309.782718,36.1880784 308.69503,35.2950571 C308.720618,35.1859505 308.736995,35.073207 308.736995,34.9564959 C308.736995,34.1120767 308.030407,33.4273499 307.158687,33.4273499 C306.287308,33.4273499 305.580719,34.1120767 305.580719,34.9564959 C305.580719,35.8009151 306.287308,36.4856419 307.158687,36.4856419 C307.522387,36.4856419 307.852992,36.3616571 308.119797,36.1616283 C309.039965,36.890659 309.98538,37.2741853 310.850959,37.2741853 C311.325885,37.2741853 311.776928,37.1601193 312.185664,36.9273585 C313.230363,36.3328926 313.702901,35.0887464 313.465438,33.6749889 C314.074448,33.5870424 314.64934,33.4111492 315.173395,33.1635102 Z M314.097443,29.7266513 L314.838491,32.093604 C314.135315,32.4913473 313.292254,32.7234468 312.386074,32.7234468 C310.010082,32.7234468 308.069438,31.1291675 307.952413,29.1328467 C307.968107,29.1278873 307.982096,29.1229279 307.99779,29.1179685 C308.335219,29.0111763 308.650471,28.9152947 308.947641,28.82834 C309.797184,29.5527419 311.000875,30.0076835 312.340356,30.0076835 C312.963695,30.0076835 313.554623,29.9048588 314.097443,29.7266513 Z" id="path-icon_referral_decision"></path>
    </defs>
    <g id="Page-1" stroke="none" stroke-width="1" fill="none" fill-rule="evenodd">
        <g id="Referrals-&amp;-Authorizations-Search" transform="translate(-498.000000, -165.000000)">
            <g id="Tab-Menu" transform="translate(197.000000, 150.000000)">
                <mask id="mask-2" fill="white">
                    <use xlink:href="#path-icon_referral_decision"></use>
                </mask>
                <use id="Referral-Decision-Support" fill="#1A6880" xlink:href="#path-icon_referral_decision"></use>
            </g>
        </g>
    </g>
</svg>
