<?xml version="1.0" encoding="UTF-8" standalone="no"?>
<svg width="63px" height="78px" viewBox="0 0 63 78" version="1.1" xmlns="http://www.w3.org/2000/svg" xmlns:xlink="http://www.w3.org/1999/xlink">
    <!-- Generator: sketchtool 45 (43445) - http://www.bohemiancoding.com/sketch -->
    <title>ICON Documents</title>
    <desc>Created with sketchtool.</desc>
    <defs>
        <path d="M38,54 C38,55.104 37.104,56 36,56 L23,56 C21.896,56 21,55.104 21,54 C21,52.896 21.896,52 23,52 L36,52 C37.104,52 38,52.896 38,54 L38,54 Z M49,46 C49,47.104 48.104,48 47,48 L23,48 C21.896,48 21,47.104 21,46 C21,44.896 21.896,44 23,44 L47,44 C48.104,44 49,44.896 49,46 L49,46 Z M49,38 C49,39.104 48.104,40 47,40 L23,40 C21.896,40 21,39.104 21,38 C21,36.896 21.896,36 23,36 L47,36 C48.104,36 49,36.896 49,38 L49,38 Z M51.477,76 C51.477,77.104 50.582,78 49.477,78 L16.344,78 C7.365,78 0,70.692 0,61.713 L0,17.727 C0,16.622 0.896,15.727 2,15.727 C3.104,15.727 4,16.622 4,17.727 L4,61.713 C4,68.487 9.571,74 16.344,74 L49.477,74 C50.582,74 51.477,74.896 51.477,76 L51.477,76 Z M54.044,65 L16.778,65 C14.572,65 13,63.643 13,61.437 L13,8.002 C13,5.796 14.572,4 16.778,4 L36,4 L36,17.437 C36,22.951 40.264,27 45.778,27 L58,27 L58,61.437 C58,63.643 56.249,65 54.044,65 L54.044,65 Z M40,6.626 L55.539,23 L45.778,23 C42.469,23 40,20.746 40,17.437 L40,6.626 Z M38.995,0 L16.778,0 C12.36,0 9,3.584 9,8.002 L9,61.437 C9,65.856 12.36,69 16.778,69 L54.044,69 C58.462,69 62,65.856 62,61.437 L62,24.473 L38.995,0 Z" id="path-icon-create-1"></path>
    </defs>
    <g id="TranZform-Icon-Library" stroke="none" stroke-width="1" fill="none" fill-rule="evenodd">
        <g id="TranZform-Icon-Library-01" transform="translate(-298.000000, -368.000000)">
            <g id="08-Documents" transform="translate(239.800000, 340.000000)">
                <g id="ICON-Documents" transform="translate(50.000000, 28.000000)">
                    <g id="contents" transform="translate(9.000000, 0.000000)">
                        <mask id="mask-2" fill="white">
                            <use xlink:href="#path-icon-create-1"></use>
                        </mask>
                        <use id="Mask" fill="#424242" xlink:href="#path-icon-create-1"></use>
                        <g id="MASK-DefaultGrey" mask="url(#mask-2)" fill="#5D5D5D">
                            <g transform="translate(-9.000000, -2.000000)" id="Rectangle">
                            </g>
                        </g>
                    </g>
                </g>
            </g>
        </g>
    </g>
</svg>
