<?xml version="1.0" encoding="UTF-8" standalone="no"?>
<svg width="78px" height="78px" viewBox="0 0 78 78" version="1.1" xmlns="http://www.w3.org/2000/svg" xmlns:xlink="http://www.w3.org/1999/xlink">
    <!-- Generator: sketchtool 43.2 (39069) - http://www.bohemiancoding.com/sketch -->
    <title>BDB96831-CD1F-4105-8E32-5928CFE4E619</title>
    <desc>Created with sketchtool.</desc>
    <defs>
        <path d="M29.654,54.862 C36.387,54.862 42.717,52.24 47.478,47.478 C52.238,42.717 54.86,36.388 54.86,29.655 C54.86,22.922 52.238,16.593 47.478,11.831 C42.717,7.07 36.387,4.448 29.654,4.448 C22.921,4.448 16.591,7.07 11.83,11.831 C7.069,16.593 4.447,22.922 4.447,29.655 C4.447,36.388 7.069,42.717 11.83,47.478 C16.591,52.24 22.921,54.862 29.654,54.862 L29.654,54.862 Z M55.122,62.177 L47.738,53.151 C42.577,57.141 36.284,59.31 29.654,59.31 C21.733,59.31 14.286,56.225 8.685,50.623 C3.084,45.022 0,37.576 0,29.655 C0,21.734 3.084,14.288 8.685,8.687 C14.286,3.085 21.733,0 29.654,0 C37.575,0 45.021,3.085 50.622,8.687 C56.223,14.288 59.308,21.734 59.308,29.655 C59.308,36.285 57.139,42.578 53.15,47.739 L62.176,55.123 L55.122,62.177 Z M77.105,71.651 L71.65,77.106 C70.478,78.278 68.578,78.278 67.407,77.106 L58.425,68.124 C57.253,66.952 57.253,65.053 58.425,63.881 L63.88,58.426 C65.052,57.254 66.951,57.254 68.123,58.426 L77.105,67.408 C78.277,68.58 78.277,70.479 77.105,71.651 L77.105,71.651 Z" id="path-icon_search_blue"></path>
    </defs>
    <g id="TranZform-Icon-Library" stroke="none" stroke-width="1" fill="none" fill-rule="evenodd">
        <g id="TranZform-Icon-Library-03" transform="translate(-1118.000000, -159.000000)">
            <g id="42-Search" transform="translate(1067.000000, 130.000000)">
                <g id="ICON-Search" transform="translate(50.000000, 28.000000)">
                    <g id="contents" transform="translate(1.000000, 1.000000)">
                        <mask id="mask-2" fill="white">
                            <use xlink:href="#path-icon_search_blue"></use>
                        </mask>
                        <use id="Mask" fill="#1F7C99" xlink:href="#path-icon_search_blue"></use>
                        <g id="MASK-DefaultGrey" mask="url(#mask-2)" fill="#5D5D5D">
                            <g transform="translate(-1.000000, -1.000000)" id="Rectangle">
                                <!-- <rect x="0" y="0" width="80" height="80"></rect> -->
                            </g>
                        </g>
                    </g>
                </g>
            </g>
        </g>
    </g>
</svg>