<?xml version="1.0" encoding="UTF-8" standalone="no"?>
<svg width="21px" height="27px" viewBox="0 0 21 27" version="1.1" xmlns="http://www.w3.org/2000/svg" xmlns:xlink="http://www.w3.org/1999/xlink">
    <!-- Generator: sketchtool 43.1 (39012) - http://www.bohemiancoding.com/sketch -->
    <title>A6635650-9BC8-4E65-AE71-B57349CE9E4F</title>
    <desc>Created with sketchtool.</desc>
    <defs></defs>
    <g id="Symbols" stroke="none" stroke-width="1" fill="none" fill-rule="evenodd">
        <g id="Notification" transform="translate(0.000000, -7.000000)" fill="#5D5D5D">
            <g id="icon::Bell">
                <g transform="translate(0.601562, 7.000000)">
                    <path d="M8.2142578,4.73136046 C7.89762433,4.32460994 7.70903571,3.81326753 7.70903571,3.25787698 C7.70903571,1.93195295 8.78390533,0.857083333 10.1098294,0.857083333 C11.4357534,0.857083333 12.510623,1.93195295 12.510623,3.25787698 C12.510623,3.81326021 12.3220394,4.32459645 12.0054135,4.73134437 C14.8718599,5.55377262 16.9692741,8.19461984 16.9692741,11.325504 L16.9692741,17.4418002 L17.8481361,17.4418002 C18.9847404,17.4418002 19.9059592,18.363019 19.9059592,19.4996233 C19.9059592,20.6362276 18.9847404,21.5574464 17.8481361,21.5574464 L2.20010601,21.5574464 C1.0635017,21.5574464 0.14228288,20.6362276 0.14228288,19.4996233 C0.14228288,18.363019 1.0635017,17.4418002 2.20010601,17.4418002 L3.25045323,17.4418002 L3.25045323,11.325504 C3.25045323,8.19464025 5.34784011,5.55380706 8.2142578,4.73136046 Z M4.61427551,18.8136823 L2.20010601,18.8136823 C1.82180952,18.8136823 1.51416497,19.1213268 1.51416497,19.4996233 C1.51416497,19.8779198 1.82180952,20.1855643 2.20010601,20.1855643 L17.8481361,20.1855643 C18.2264325,20.1855643 18.5340771,19.8779198 18.5340771,19.4996233 C18.5340771,19.1213268 18.2264325,18.8136823 17.8481361,18.8136823 L15.62603,18.8136823 L15.597392,18.8135794 L15.597392,11.325504 C15.597392,8.29981803 13.1355496,5.83797562 10.1098637,5.83797562 C7.08417772,5.83797562 4.62233532,8.29981803 4.62233532,11.325504 L4.62233532,18.8135794 L4.61427551,18.8135794 Z M7.28028827,23.7980385 L7.28028827,22.9752523 C7.28028827,22.5962698 7.58758985,22.2893112 7.96622931,22.2893112 C8.34486876,22.2893112 8.65217035,22.5962698 8.65217035,22.9752523 L8.65217035,23.7980385 C8.65217035,24.5546315 9.26745947,25.1699206 10.0240524,25.1699206 C10.7806454,25.1699206 11.3959345,24.5546315 11.3959345,23.7980385 L11.3959345,22.9752523 C11.3959345,22.5962698 11.7032361,22.2893112 12.0818756,22.2893112 C12.460515,22.2893112 12.7678166,22.5962698 12.7678166,22.9752523 L12.7678166,23.7980385 C12.7678166,25.3108815 11.5368954,26.5418027 10.0240524,26.5418027 C8.51120947,26.5418027 7.28028827,25.3108815 7.28028827,23.7980385 Z" id="Icon_Bell"></path>
                </g>
            </g>
        </g>
    </g>
</svg>