<?xml version="1.0" encoding="utf-8"?>
<!-- Generator: Adobe Illustrator 21.1.0, SVG Export Plug-In . SVG Version: 6.00 Build 0)  -->
<svg version="1.1" id="Layer_1" xmlns="http://www.w3.org/2000/svg" xmlns:xlink="http://www.w3.org/1999/xlink" x="0px" y="0px"
	 viewBox="0 0 80 80" style="enable-background:new 0 0 80 80;" xml:space="preserve">
<style type="text/css">
	.st0{fill:#1A6880;}
</style>
<g id="TranZform-Icon-Library">
	<g id="TZF-Provider-Icon-Library-03" transform="translate(-1117.000000, -158.000000)">
		<g id="_x34_2-Attachment" transform="translate(1067.000000, 130.000000)">
			<g id="ICON-Attachment" transform="translate(50.000000, 28.000000)">
				<path id="Attachment" class="st0" d="M69.8,33.1c1.2,1.2,3.3,1.2,4.6,0c7.6-7.6,7.6-19.9,0-27.4c-7.6-7.6-19.9-7.6-27.4,0
					L5.7,46.9c-7.6,7.6-7.6,19.9,0,27.4c3.8,3.8,8.8,5.7,13.8,5.7s9.9-1.9,13.8-5.7l27.9-27.9c4-4.4,3.9-11.3-0.3-15.7
					c-4.4-4.4-11.6-4.4-16,0l-23.1,23c-1.2,1.2-1.2,3.3,0,4.6c1.2,1.2,3.3,1.2,4.6,0l22.9-22.9c1.9-1.9,5-1.9,6.9,0
					c1.9,1.9,1.9,5,0,6.9L28.6,69.8c-5,5-13.2,5-18.3,0c-5-5-5-13.2,0-18.3l41.2-41.2c5-5,13.2-5,18.3,0c5.1,5,5,13.2,0,18.3
					C68.4,29.8,68.4,31.9,69.8,33.1z"/>
			</g>
		</g>
	</g>
</g>
</svg>
