<?xml version="1.0" encoding="utf-8"?>
<!-- Generator: Adobe Illustrator 21.1.0, SVG Export Plug-In . SVG Version: 6.00 Build 0)  -->
<svg version="1.1" id="Layer_1" xmlns="http://www.w3.org/2000/svg" xmlns:xlink="http://www.w3.org/1999/xlink" x="0px" y="0px"
	 viewBox="0 0 10 10" style="enable-background:new 0 0 10 10;" xml:space="preserve">
<style type="text/css">
	.st0{fill:#FFFFFF;}
	.st1{fill:#898989;}
</style>
<g>
	<path id="path-1" class="st0" d="M9.6,9.6c-0.5,0.5-1.3,0.5-1.9,0L4.9,6.8L2.1,9.5C1.6,10,0.9,10.1,0.4,9.6C0.1,9.3,0,9.1,0,8.7
		c0-0.3,0.2-0.6,0.4-0.9l2.8-2.8L0.4,2.2C0.1,2,0,1.7,0,1.3C0,1,0.1,0.6,0.4,0.4c0.5-0.5,1.3-0.5,1.9,0l2.9,2.9l2.7-2.7
		C8.4,0,9.1-0.1,9.6,0.4c0.5,0.5,0.4,1.2-0.1,1.8L6.8,4.9l2.9,2.9C10.1,8.3,10.1,9.1,9.6,9.6"/>
</g>
<title>Mask</title>
<desc>Created with Sketch.</desc>
<g id="Add-Patient-Info">
	<g id="MC-New-Message---Attachments-02" transform="translate(-410.000000, -436.000000)">
		<g id="Popup" transform="translate(263.000000, 200.000000)">
			<g id="Attachments" transform="translate(30.000000, 216.000000)">
				<g id="Group-5" transform="translate(20.000000, 12.000000)">
					<g id="Mask">
						<path id="path-1_1_" class="st1" d="M106.6,17.6c-0.5,0.5-1.3,0.5-1.9,0l-2.9-2.9l-2.8,2.8c-0.5,0.5-1.3,0.6-1.8,0.1
							c-0.3-0.3-0.3-0.5-0.3-0.9c0-0.3,0.2-0.6,0.4-0.9l2.8-2.8l-2.9-2.9C97.1,10,97,9.7,97,9.3c0-0.3,0.1-0.7,0.4-0.9
							c0.5-0.5,1.3-0.5,1.9,0l2.9,2.9l2.7-2.7c0.5-0.5,1.2-0.6,1.8-0.1c0.5,0.5,0.4,1.2-0.1,1.8l-2.7,2.7l2.9,2.9
							C107.1,16.3,107.1,17.1,106.6,17.6"/>
					</g>
				</g>
			</g>
		</g>
	</g>
</g>
</svg>
