<?xml version="1.0" encoding="UTF-8" standalone="no"?>
<svg width="17px" height="17px" viewBox="0 0 17 17" version="1.1" xmlns="http://www.w3.org/2000/svg" xmlns:xlink="http://www.w3.org/1999/xlink">
    <!-- Generator: sketchtool 43 (38998) - http://www.bohemiancoding.com/sketch -->
    <title>6E66D715-BF3A-413E-B0A9-1AAF8976EE05</title>
    <desc>Created with sketchtool.</desc>
    <defs></defs>
    <g id="Symbols" stroke="none" stroke-width="1" fill="none" fill-rule="evenodd">
        <g id="Profile_Drop-Down" transform="translate(-205.000000, -164.000000)" fill="#25809C">
            <g id="drop-down">
                <g id="Icon_Logout" transform="translate(205.117188, 164.233398)">
                    <path d="M7.49942857,14.9988156 C7.77537662,14.9988156 7.99937662,15.222774 7.99933506,15.4987636 C7.99933506,15.7747117 7.77537662,15.9987117 7.49938701,15.9987117 L0.499948052,15.9987117 C0.224,15.9987117 0,15.7747532 0,15.4987636 L0,0.499948052 C0,0.223958442 0.224,0 0.499948052,0 L7.49942857,0 C7.77537662,0 7.99937662,0.224 7.99937662,0.499948052 C7.99937662,0.775896104 7.77541818,0.999896104 7.49942857,0.999896104 L0.999937662,0.999896104 L0.999937662,14.9988156 L7.49942857,14.9988156 Z M15.8537558,7.65036883 C16.0482494,7.84436364 16.0462545,8.16984935 15.8532571,8.36434286 L12.4040312,11.8635636 C12.209039,12.0610494 11.8925714,12.0610494 11.6970805,11.8635636 C11.5015896,11.6665766 11.5015896,11.3471169 11.6970805,11.1496312 L14.2968935,8.51233247 L4.00120519,8.51233247 C3.72525714,8.51233247 3.50125714,8.28633766 3.50125714,8.00735584 C3.50125714,7.72837403 3.72521558,7.50237922 4.00120519,7.50237922 L14.2968935,7.50237922 L11.6970805,4.86508052 C11.5015896,4.66809351 11.5015896,4.34813506 11.6970805,4.15114805 C11.8920727,3.95416104 12.2085403,3.95366234 12.4040312,4.15114805 L15.8537558,7.65036883 Z" id="Combined-Shape"></path>
                </g>
            </g>
        </g>
    </g>
</svg>