<?xml version="1.0" encoding="UTF-8" standalone="no"?>
<svg width="19px" height="19px" viewBox="0 0 19 19" version="1.1" xmlns="http://www.w3.org/2000/svg" xmlns:xlink="http://www.w3.org/1999/xlink">
    <!-- Generator: sketchtool 43 (38998) - http://www.bohemiancoding.com/sketch -->
    <title>28B56400-ACCA-4174-A096-AA7220F42CB2</title>
    <desc>Created with sketchtool.</desc>
    <defs></defs>
    <g id="Symbols" stroke="none" stroke-width="1" fill="none" fill-rule="evenodd">
        <g id="Profile_Drop-Down" transform="translate(-203.000000, -116.000000)" fill="#2A839E">
            <g id="drop-down">
                <g id="Icon_Settings" transform="translate(203.117188, 116.718750)">
                    <path d="M10.6875,18 L7.3125,18 C7.001775,18 6.75,17.748225 6.75,17.4375 L6.75,14.8293 C6.6798,14.8014 6.607575,14.77215 6.534675,14.741775 L4.6539,16.6302 C4.548375,16.7364 4.404825,16.7958 4.2552,16.7958 C4.105575,16.7958 3.962025,16.7364 3.856725,16.6302 L1.469925,14.23305 C1.251675,14.0139 1.25145,13.659975 1.4688,13.440375 L3.35475,11.535975 C3.31425,11.449575 3.274875,11.35575 3.237075,11.25 L0.5625,11.25 C0.251775,11.25 0,10.998225 0,10.6875 L0,7.3125 C0,7.001775 0.251775,6.75 0.5625,6.75 L3.284775,6.75 C3.3093,6.6897 3.334725,6.627825 3.361275,6.565275 L1.471275,4.7133 C1.36395,4.608 1.303425,4.464675 1.302525,4.3146 C1.301625,4.164525 1.361025,4.0203 1.467,3.9141 L3.849975,1.5273 C3.955725,1.42155 4.098825,1.362375 4.248225,1.362375 L4.24845,1.362375 C4.39785,1.362375 4.541175,1.421775 4.646475,1.52775 L6.5358,3.422925 C6.60825,3.393 6.68025,3.364425 6.75,3.3372 L6.75,0.5625 C6.75,0.251775 7.001775,0 7.3125,0 L10.6875,0 C10.998225,0 11.25,0.251775 11.25,0.5625 L11.25,3.294675 C11.346075,3.32955 11.4309,3.366 11.508975,3.403125 L13.403925,1.5156 C13.623525,1.297575 13.97835,1.297125 14.19795,1.5156 L16.584525,3.891825 C16.69095,3.997575 16.75035,4.141125 16.750125,4.290975 C16.7499,4.44105 16.69005,4.5846 16.5834,4.690125 L14.692725,6.562575 C14.719725,6.626025 14.745825,6.689025 14.770575,6.75 L17.4375,6.75 C17.748225,6.75 18,7.001775 18,7.3125 L18,10.6875 C18,10.998225 17.748225,11.25 17.4375,11.25 L14.818725,11.25 C14.780475,11.356875 14.740425,11.451375 14.69925,11.538675 L16.585875,13.46355 C16.801875,13.683825 16.800075,14.0373 16.5816,14.255325 L14.191425,16.642125 C13.971825,16.860825 13.616325,16.86105 13.39695,16.64235 L11.51055,14.7618 C11.4318,14.799825 11.34675,14.837175 11.25,14.873175 L11.25,17.4375 C11.25,17.748225 10.998225,18 10.6875,18 Z M7.875,16.875 L10.125,16.875 L10.125,14.451525 C10.125,14.187825 10.30815,13.959225 10.565775,13.9023 C10.867275,13.83525 11.00565,13.760775 11.2149,13.6476 L11.354625,13.573125 C11.572425,13.45905 11.8386,13.500225 12.012075,13.673475 L13.793625,15.4494 L15.39225,13.853025 L13.61205,12.0366 C13.441275,11.862675 13.402125,11.5983 13.515075,11.3823 L13.56345,11.29095 C13.689675,11.052225 13.77315,10.8945 13.84605,10.565775 C13.902975,10.30815 14.131575,10.125 14.395275,10.125 L16.875,10.125 L16.875,7.875 L14.395275,7.875 C14.172525,7.875 13.97115,7.743825 13.880925,7.54065 C13.845825,7.46145 13.807575,7.3674 13.766175,7.2657 C13.69125,7.08165 13.6062,6.87285 13.516875,6.702075 C13.402575,6.48315 13.4442,6.215625 13.6197,6.041925 L15.389325,4.289175 L13.80105,2.7081 L12.01185,4.490325 C11.8377,4.663575 11.57175,4.70385 11.354175,4.590225 L11.2329,4.525875 C11.018925,4.411125 10.877625,4.33575 10.565775,4.26645 C10.30815,4.209525 10.125,3.980925 10.125,3.717225 L10.125,1.125 L7.875,1.125 L7.875,3.717225 C7.875,3.939975 7.743825,4.14135 7.54065,4.231575 C7.45335,4.270275 7.34445,4.313025 7.225425,4.359375 C7.0416,4.430925 6.833025,4.512375 6.67395,4.595625 C6.45525,4.709475 6.1884,4.6683 6.014925,4.49415 L4.247775,2.721375 L2.66445,4.307175 L4.432725,6.039675 C4.6098,6.21315 4.65255,6.482475 4.537575,6.702075 C4.449375,6.8706 4.365675,7.077375 4.291875,7.260075 C4.250025,7.364025 4.2111,7.459875 4.175325,7.54065 C4.0851,7.743825 3.883725,7.875 3.660975,7.875 L1.125,7.875 L1.125,10.125 L3.660975,10.125 C3.924675,10.125 4.153275,10.30815 4.2102,10.565775 C4.284,10.89855 4.367925,11.05785 4.495275,11.298375 L4.539375,11.3823 C4.652775,11.599425 4.612725,11.8647 4.440375,12.038625 L2.6613,13.835025 L4.2552,15.436125 L6.014475,13.66965 C6.18795,13.49505 6.455025,13.45365 6.6735,13.56795 C6.83775,13.653675 7.05105,13.7385 7.23915,13.813425 C7.35255,13.858425 7.45695,13.90005 7.54065,13.937175 C7.743825,14.0274 7.875,14.228775 7.875,14.451525 L7.875,16.875 Z M9,11.8125 C7.449075,11.8125 6.1875,10.550925 6.1875,9 C6.1875,7.449075 7.449075,6.1875 9,6.1875 C10.550925,6.1875 11.8125,7.449075 11.8125,9 C11.8125,10.550925 10.550925,11.8125 9,11.8125 Z M9,7.3125 C8.0694,7.3125 7.3125,8.0694 7.3125,9 C7.3125,9.9306 8.0694,10.6875 9,10.6875 C9.9306,10.6875 10.6875,9.9306 10.6875,9 C10.6875,8.0694 9.9306,7.3125 9,7.3125 Z" id="Combined-Shape"></path>
                </g>
            </g>
        </g>
    </g>
</svg>