<?xml version="1.0" encoding="UTF-8" standalone="no"?>
<svg width="18px" height="17px" viewBox="0 0 18 17" version="1.1" xmlns="http://www.w3.org/2000/svg" xmlns:xlink="http://www.w3.org/1999/xlink">
    <!-- Generator: sketchtool 43 (38998) - http://www.bohemiancoding.com/sketch -->
    <title>73BF8303-1377-4A4E-B2C0-D109F68AECF7</title>
    <desc>Created with sketchtool.</desc>
    <defs></defs>
    <g id="Symbols" stroke="none" stroke-width="1" fill="none" fill-rule="evenodd">
        <g id="Profile_Drop-Down" transform="translate(-203.000000, -73.000000)" fill="#3388A2">
            <g id="drop-down">
                <g id="Icon_Profile" transform="translate(203.117188, 71.928571)">
                    <g id="Group-10" transform="translate(0.395945, 0.550784)">
                        <path d="M11.4949075,9.39333694 C11.2911485,9.55237715 11.0741001,9.69513408 10.8457395,9.81963555 C10.844347,9.82056389 10.8424903,9.82149223 10.8406337,9.82288473 C10.1694457,10.1881855 9.40031803,10.395669 8.58477354,10.395669 C7.84396021,10.3947406 7.14538624,10.2192848 6.52015093,9.91432598 C6.41942631,9.84098731 6.31034666,9.78203788 6.19291196,9.73979853 C6.1684073,9.72538975 6.14404235,9.71076793 6.11981972,9.69593562 C6.03545971,9.87701098 5.89514339,10.0340557 5.70708296,10.1384039 C3.61912696,11.2952775 2.3221747,13.4787417 2.3221747,15.8365696 C2.3221747,16.3772929 1.88332681,16.8161408 1.34260351,16.8161408 C0.801880208,16.8161408 0.363032313,16.3772929 0.363032313,15.8365696 C0.363032313,12.7697939 2.04340614,9.93224895 4.74891505,8.42934498 C4.18285614,7.65040551 3.8483956,6.69327295 3.8483956,5.6583627 C3.8483956,3.04648513 5.97336014,0.921520591 8.58523771,0.921520591 C11.1971153,0.921520591 13.3220798,3.04648513 13.3220798,5.6583627 C13.3220798,6.63437489 13.0253308,7.5422447 12.5174124,8.29661664 C12.6618007,8.3038214 12.8067727,8.34319665 12.941706,8.41778711 C15.6492408,9.9145719 17.3311645,12.7572875 17.3311645,15.8365696 C17.3311645,16.3772929 16.8923166,16.8161408 16.3515933,16.8161408 C15.8108701,16.8161408 15.3720222,16.3772929 15.3720222,15.8365696 C15.3720222,13.4699256 14.0775188,11.2845022 11.9934811,10.1325265 C11.7076079,9.97436502 11.5318311,9.6945087 11.4949075,9.39333694 Z M8.58523771,2.7781956 C6.99685224,2.7781956 5.70507061,4.0704414 5.70507061,5.6583627 C5.70507061,6.63218874 6.21194288,7.54892202 7.03537825,8.07900273 C7.1727722,8.14027301 7.3064528,8.21129083 7.43502754,8.29252036 C7.80357753,8.45590776 8.1902301,8.5385298 8.58616604,8.53899397 C9.04476477,8.53899397 9.4824759,8.43409183 9.88676689,8.22707257 L9.90626197,8.21407584 L9.9800648,8.17694234 C10.8967981,7.66635671 11.4654048,6.70367072 11.4654048,5.6583627 C11.4654048,4.0704414 10.1736232,2.7781956 8.58523771,2.7781956 Z" id="Combined-Shape"></path>
                    </g>
                </g>
            </g>
        </g>
    </g>
</svg>