<?xml version="1.0" encoding="utf-8"?>
<!-- Generator: Adobe Illustrator 20.1.0, SVG Export Plug-In . SVG Version: 6.00 Build 0)  -->
<svg version="1.1" baseProfile="tiny" xmlns="http://www.w3.org/2000/svg"
	 x="0px" y="0px" viewBox="0 0 80 80" xml:space="preserve">
<g>
	<g>
		<g>
			<path fill="#333333" d="M40,4.1c19.9,0,36,16.1,36,36s-16.1,36-36,36S4,59.9,4,40.1S20.1,4.1,40,4.1 M40,0.1
				C17.9,0.1,0,18,0,40.1s17.9,40,40,40s40-17.9,40-40S62.1,0.1,40,0.1L40,0.1z"/>
		</g>
	</g>
	<g>
		<circle fill="#333333" cx="41.2" cy="20" r="5.4"/>
	</g>
	<g>
		<line fill="#333333" x1="41" y1="37" x2="41" y2="60"/>
		<path fill="#333333" d="M41,65c-2.8,0-5-2.2-5-5V37c0-2.8,2.2-5,5-5s5,2.2,5,5v23C46,62.8,43.8,65,41,65z"/>
	</g>
</g>
</svg>
