<?xml version="1.0" encoding="iso-8859-1"?>
<!-- Generator: Adobe Illustrator 19.1.0, SVG Export Plug-In . SVG Version: 6.00 Build 0)  -->
<svg version="1.1" baseProfile="tiny" xmlns="http://www.w3.org/2000/svg"
	 x="0px" y="0px" viewBox="0 0 80 80" xml:space="preserve">
<g>
	<path fill="#73b03c" stroke="#73b03c" d="M40-0.014c-22.091,0-40,17.909-40,40c0,22.092,17.909,40,40,40s40-17.908,40-40
		C80,17.895,62.091-0.014,40-0.014z M40,75.986c-19.85,0-36-16.149-36-36c0-19.85,16.15-36,36-36s36,16.15,36,36
		C76,59.837,59.85,75.986,40,75.986z"/>
	<path fill="#73b03c" d="M52.818,25.204l-20.02,20.02l-5.616-5.615c-1.758-1.758-4.606-1.758-6.364,0
		c-1.757,1.757-1.757,4.606,0,6.363l8.798,8.798c0.879,0.879,2.03,1.318,3.182,1.318s2.303-0.439,3.182-1.318l23.202-23.202
		c1.757-1.757,1.757-4.606,0-6.363C57.424,23.446,54.576,23.446,52.818,25.204z"/>
</g>
</svg>
