<?xml version="1.0" encoding="utf-8"?>
<svg version="1.2" baseProfile="tiny" xmlns="http://www.w3.org/2000/svg"
	 x="0px" y="0px" viewBox="0 0 80 80" xml:space="preserve">
	<path fill="#333333" d="M40,8.9c8.3,0,16.1,3.2,22,9.1c12.1,12.1,12.1,31.9,0,44c-5.9,5.9-13.7,9.1-22,9.1c-8.3,0-16.1-3.2-22-9.1
		C5.9,49.9,5.9,30.1,18,18C23.9,12.1,31.7,8.9,40,8.9 M40,0C29.8,0,19.5,3.9,11.7,11.7c-15.6,15.6-15.6,40.9,0,56.6
		C19.5,76.1,29.8,80,40,80s20.5-3.9,28.3-11.7c15.6-15.6,15.6-40.9,0-56.6C60.5,3.9,50.2,0,40,0L40,0z"/>
	<g>
			<line fill="none" stroke="#333333" stroke-width="8.889" stroke-linecap="round" stroke-miterlimit="10" x1="27.4" y1="27.4" x2="52.6" y2="52.6"/>
			<line fill="none" stroke="#333333" stroke-width="8.889" stroke-linecap="round" stroke-miterlimit="10" x1="52.6" y1="27.4" x2="27.4" y2="52.6"/>
	</g>
</svg>
