<?xml version="1.0" encoding="UTF-8" standalone="no"?>
<svg width="30px" height="30px" viewBox="0 0 30 30" version="1.1" xmlns="http://www.w3.org/2000/svg" xmlns:xlink="http://www.w3.org/1999/xlink">
    <path fill="#5A6F7F" d="M20.3772525,1.53272625 C21.7554775,2.90913875 21.7554775,5.14467625 20.3758025,6.52217625 C20.3105525,6.58887625 17.04044,9.84376375 15.836215,11.0421887 C15.5929775,11.2843387 15.201115,11.2843387 14.9578775,11.0421887 C13.7543775,9.84376375 10.484265,6.58887625 10.41684,6.52217625 C9.03934,5.14540125 9.03934,2.90913875 10.41684,1.53272625 C11.7925275,0.15848875 14.01864,0.15631375 15.3972275,1.52330125 C16.7769025,0.15631375 19.0033775,0.15848875 20.3772525,1.53272625 Z M28.4628513,19.4003513 C29.1273138,20.0778638 29.4999638,20.9873763 29.4999638,21.9356763 L29.4999638,27.6465013 C29.4999638,28.3421388 29.0838138,28.9707138 28.4436388,29.2400513 C27.8034638,29.5093888 27.0632388,29.3716388 26.5651638,28.8869763 L21.4289013,23.8942638 C21.2429388,23.7141013 20.9946263,23.6136888 20.7354388,23.6136888 L8.74756375,23.6136888 L8.74756375,23.6144138 L8.74647625,23.6144138 C8.40101375,23.6144138 8.05301375,23.5013138 7.76083875,23.2725763 L1.10932625,18.0388013 C0.41622625,17.4932388 0.29696375,16.4909263 0.84180125,15.7967388 C1.38591375,15.1036388 2.39148875,14.9861888 3.08313875,15.5306638 L7.40703875,18.9316388 C7.58212625,19.0693888 7.79817625,19.1444263 8.02183875,19.1444263 L18.2878388,19.1444263 C18.8363013,19.1444263 19.2818138,18.6992763 19.2818138,18.1504513 C19.2818138,17.6016263 18.8363013,17.1572013 18.2878388,17.1572013 L12.2591013,17.1572013 C11.3771388,17.1572013 10.6626513,16.4434388 10.6626513,15.5611138 C10.6626513,14.6787888 11.3771388,13.9639388 12.2591013,13.9639388 L20.5752138,13.9639388 C21.9237138,13.9639388 23.2211013,14.4776013 24.2038388,15.4005263 L28.4628513,19.4003513 Z"></path>
</svg>
