<?xml version="1.0" encoding="UTF-8" standalone="no"?>
<svg width="25px" height="28px" viewBox="0 0 25 28" version="1.1" xmlns="http://www.w3.org/2000/svg" xmlns:xlink="http://www.w3.org/1999/xlink">
    <path fill="#5A6F7F" d="M16.1072945,23.1778767 L18.3596918,23.1778767 C18.942911,23.1778767 19.4203082,23.655274 19.4203082,24.2388356 L19.4203082,24.2884932 C19.4203082,24.8717123 18.942911,25.3491096 18.3596918,25.3491096 L16.1072945,25.3491096 L16.1072945,23.1778767 Z M11.4684932,0.316438356 C11.780137,0.262328767 12.1027397,0.232876712 12.4349315,0.232876712 C14.860274,0.232876712 16.8267123,1.75308219 16.8267123,3.62876712 C16.8267123,3.71438356 16.8212329,3.79863014 16.8133562,3.88253425 C17.3582192,4.45958904 17.7188356,5.45958904 17.7188356,6.59760274 C17.7188356,6.82054795 17.705137,7.03835616 17.6787671,7.24931507 C17.7287671,7.24383562 17.7767123,7.24828767 17.8226027,7.26335616 C18.2979452,7.42363014 18.3325342,8.67945205 17.9006849,10.0688356 C17.6476027,10.8821918 17.290411,11.5609589 16.9421233,11.9513699 C16.1770548,14.3030822 14.4089041,15.9503425 12.3489726,15.9503425 C10.2609589,15.9503425 8.47260274,14.2568493 7.72534247,11.8534247 C7.40410959,11.4520548 7.08321918,10.8178082 6.84965753,10.0688356 C6.41780822,8.67945205 6.45239726,7.42363014 6.92808219,7.26335616 C7.09143836,7.20821918 7.28630137,7.29075342 7.48835616,7.47808219 C7.20410959,6.81849315 7.04383562,6.07705479 7.04383562,5.29280822 C7.04383562,2.54417808 9.00582192,0.315068493 11.4260274,0.315068493 C11.4400685,0.315068493 11.4544521,0.316438356 11.4684932,0.316438356 Z M16.2773973,22.1910959 L16.2773973,15.8376712 C18.8839041,16.8486301 21.875,18.7445205 23.0623288,19.8280822 C24.6650685,21.1486301 27.2996575,26.4958904 20.2020548,27.1619863 C19.8917808,27.1835616 19.4219178,27.2188356 18.8356164,27.2280822 C18.7304795,27.2407534 18.6236301,27.2876712 18.5160959,27.2876712 L3.29486301,27.2876712 C2.20684932,27.2876712 1.26472603,26.594863 0.806506849,25.6465753 C0.646232877,25.4027397 -1.07808219,22.5674658 2.39691781,19.875 C2.93493151,19.3917808 5.6260274,17.4037671 8.74349315,15.9126712 C9.64041096,16.7349315 10.9123288,17.2506849 12.3270548,17.2506849 C12.9804795,17.2506849 13.6010274,17.1356164 14.1712329,16.9359589 L11.6373288,22.1910959 L3.40616438,22.1910959 C2.35958904,22.1910959 1.51130137,23.1873288 1.51130137,24.2760274 C1.51130137,25.3643836 2.35958904,26.3606164 3.40616438,26.3606164 L18.6273973,26.3606164 C19.6736301,26.3606164 20.5219178,25.3643836 20.5219178,24.2760274 C20.5219178,23.1873288 19.6736301,22.1910959 18.6273973,22.1910959 L16.2773973,22.1910959 Z"></path>
</svg>
