<?xml version="1.0" encoding="UTF-8" standalone="no"?>
<svg width="24px" height="20px" viewBox="0 0 24 20" version="1.1" xmlns="http://www.w3.org/2000/svg" xmlns:xlink="http://www.w3.org/1999/xlink">
    <path fill="#5A6F7F" fill-rule="evenodd" d="M20.625 15.03h1.438v-1.436h-1.438v1.437zM3.375 9.28h1.438V7.845H3.375V9.28zm-1.438 5.75h1.438v-1.436H1.937v1.437zm5.75-10.06h1.438V3.53H7.687v1.44zm7.188 0h1.438V3.53h-1.438v1.44zm5.75 2.874V9.28l-5.894 5.033c0 .143.145.43.145.718 0 1.583-1.294 2.876-2.875 2.876-1.58 0-2.875-1.293-2.875-2.875 0-1.58 1.294-2.874 2.875-2.874.43 0 .863.144 1.15.288l6.037-4.6h1.438zM23.5 12.3C23.5 5.975 18.325.656 12 .656S.5 5.976.5 12.3c0 2.012.43 4.17 1.294 5.606h7.043c.72.863 1.87 1.438 3.163 1.438 1.294 0 2.444-.575 3.162-1.438h7.044C23.07 16.47 23.5 14.313 23.5 12.3z"></path>
</svg>
