<?xml version="1.0" encoding="UTF-8" standalone="no"?>
<svg width="28px" height="28px" viewBox="0 0 28 28" version="1.1" xmlns="http://www.w3.org/2000/svg" xmlns:xlink="http://www.w3.org/1999/xlink">
    <path fill="#5A6F7F" d="M16.6389814,6.27669461 C10.7686861,6.27669461 6.02829355,11.0562525 6.02829355,16.9265478 C6.02829355,18.5500032 6.39395225,20.1197362 7.04485942,21.5061199 L3.37094253,21.5061199 C1.84592042,21.5061199 0.482758621,20.1755381 0.482758621,18.650516 L0.482758621,3.07865393 C0.482758621,1.55363183 1.84592042,0.363767993 3.37094253,0.363767993 L17.8489478,0.363767993 C19.3739699,0.363767993 20.5853227,1.55363183 20.5853227,3.07865393 L20.5853227,7.02326225 C19.5455349,6.53005623 18.040962,6.27669461 16.6389814,6.27669461 Z M27.0225103,26.247067 C27.3330603,26.5538044 27.3330603,27.0587947 27.0225103,27.3655321 C26.7116138,27.6764286 26.2107827,27.6764286 25.8998861,27.3655321 L21.3244732,22.7939317 C19.941902,23.9283402 18.1746094,24.6080149 16.24407,24.6080149 C11.8124944,24.6080149 8.22349355,21.0152014 8.22349355,16.5874384 C8.22349355,12.1593287 11.8124944,8.5665153 16.24407,8.5665153 C20.6718331,8.5665153 24.2646465,12.1593287 24.2646465,16.5874384 C24.2646465,18.5176311 23.5811593,20.2887363 22.4470974,21.6716541 L27.0225103,26.247067 Z M16.24407,23.011594 C19.7862805,23.011594 22.6723848,20.1296488 22.6723848,16.5874384 C22.6723848,13.0448813 19.7862805,10.1591236 16.24407,10.1591236 C12.698047,10.1591236 9.81575526,13.0448813 9.81575526,16.5874384 C9.81575526,20.1296488 12.698047,23.011594 16.24407,23.011594 Z M18.8523431,17.0004421 C19.234985,17.0004421 19.5455349,17.310992 19.5455349,17.693634 C19.5455349,18.0762759 19.234985,18.3868258 18.8523431,18.3868258 L12.6136163,18.3868258 C12.2309744,18.3868258 11.9204244,18.0762759 11.9204244,17.693634 C11.9204244,17.310992 12.2309744,17.0004421 12.6136163,17.0004421 L18.8523431,17.0004421 Z M12.6136163,15.6140584 C12.2309744,15.6140584 11.9204244,15.3035084 11.9204244,14.9208665 C11.9204244,14.5382246 12.2309744,14.2276746 12.6136163,14.2276746 L16.7727675,14.2276746 C17.1554094,14.2276746 17.4659593,14.5382246 17.4659593,14.9208665 C17.4659593,15.3035084 17.1554094,15.6140584 16.7727675,15.6140584 L12.6136163,15.6140584 Z"></path>
</svg>
