<?xml version="1.0" encoding="UTF-8" standalone="no"?>
<svg width="22px" height="22px" viewBox="0 0 22 22" version="1.1" xmlns="http://www.w3.org/2000/svg" xmlns:xlink="http://www.w3.org/1999/xlink">
    <path fill="#5A6F7F" d="M18.4324324,5.94594595 L9.21621622,5.94594595 C8.96975676,5.94594595 8.77027027,5.74645946 8.77027027,5.5 C8.77027027,5.25354054 8.96975676,5.05405405 9.21621622,5.05405405 L18.4324324,5.05405405 C18.6785946,5.05405405 18.8783784,5.25354054 18.8783784,5.5 C18.8783784,5.74645946 18.6785946,5.94594595 18.4324324,5.94594595 L18.4324324,5.94594595 Z M18.4324324,11.2972973 L9.21621622,11.2972973 C8.96975676,11.2972973 8.77027027,11.0975135 8.77027027,10.8513514 C8.77027027,10.6048919 8.96975676,10.4054054 9.21621622,10.4054054 L18.4324324,10.4054054 C18.6785946,10.4054054 18.8783784,10.6048919 18.8783784,10.8513514 C18.8783784,11.0975135 18.6785946,11.2972973 18.4324324,11.2972973 L18.4324324,11.2972973 Z M18.4324324,16.6486486 L9.21621622,16.6486486 C8.96975676,16.6486486 8.77027027,16.4488649 8.77027027,16.2027027 C8.77027027,15.9565405 8.96975676,15.7567568 9.21621622,15.7567568 L18.4324324,15.7567568 C18.6785946,15.7567568 18.8783784,15.9565405 18.8783784,16.2027027 C18.8783784,16.4488649 18.6785946,16.6486486 18.4324324,16.6486486 L18.4324324,16.6486486 Z M5.12837838,7.35810811 C4.06108108,7.35810811 3.19594595,6.49297297 3.19594595,5.42567568 C3.19594595,4.35837838 4.06108108,3.49324324 5.12837838,3.49324324 C6.19567568,3.49324324 7.06081081,4.35837838 7.06081081,5.42567568 C7.06081081,6.49297297 6.19567568,7.35810811 5.12837838,7.35810811 L5.12837838,7.35810811 Z M5.12837838,12.7094595 C4.06108108,12.7094595 3.19594595,11.8443243 3.19594595,10.777027 C3.19594595,9.70972973 4.06108108,8.84459459 5.12837838,8.84459459 C6.19567568,8.84459459 7.06081081,9.70972973 7.06081081,10.777027 C7.06081081,11.8443243 6.19567568,12.7094595 5.12837838,12.7094595 L5.12837838,12.7094595 Z M5.12837838,18.0608108 C4.06108108,18.0608108 3.19594595,17.1956757 3.19594595,16.1283784 C3.19594595,15.0610811 4.06108108,14.1959459 5.12837838,14.1959459 C6.19567568,14.1959459 7.06081081,15.0610811 7.06081081,16.1283784 C7.06081081,17.1956757 6.19567568,18.0608108 5.12837838,18.0608108 L5.12837838,18.0608108 Z M22,2.37837838 C22,1.06491892 20.9350811,0 19.6216216,0 L2.37837838,0 C1.06491892,0 0,1.06491892 0,2.37837838 L0,19.6216216 C0,20.9350811 1.06491892,22 2.37837838,22 L19.6216216,22 C20.9350811,22 22,20.9350811 22,19.6216216 L22,2.37837838 Z"></path>
</svg>
