<?xml version="1.0" encoding="UTF-8" standalone="no"?>
<svg width="68px" height="70px" viewBox="0 0 68 70" version="1.1" xmlns="http://www.w3.org/2000/svg" xmlns:xlink="http://www.w3.org/1999/xlink">
    <!-- Generator: sketchtool 43.2 (39069) - http://www.bohemiancoding.com/sketch -->
    <title>ICON Appointments</title>
    <desc>Created with sketchtool.</desc>
    <defs>
        <path d="M60.103,42.879 C60.884,43.66 60.884,44.926 60.103,45.707 L48.641,57.169 C47.797,58.013 46.689,58.435 45.581,58.435 C44.471,58.435 43.363,58.013 42.519,57.169 L38.332,52.983 C37.551,52.201 37.551,50.936 38.332,50.154 C39.114,49.373 40.379,49.373 41.161,50.154 L45.347,54.341 C45.506,54.5 45.656,54.498 45.813,54.341 L57.275,42.879 C58.056,42.098 59.322,42.098 60.103,42.879 L60.103,42.879 Z M26,55 L30,55 L30,51 L26,51 L26,55 Z M33,51.25 C33,50.007 31.993,49 30.75,49 L26.25,49 C25.008,49 24,50.007 24,51.25 L24,54.75 C24,55.992 25.008,57 26.25,57 L30.75,57 C31.993,57 33,55.992 33,54.75 L33,51.25 Z M13,55 L17,55 L17,51 L13,51 L13,55 Z M20,51.25 C20,50.007 18.993,49 17.75,49 L13.25,49 C12.008,49 11,50.007 11,51.25 L11,55.75 C11,56.992 12.008,58 13.25,58 L17.75,58 C18.993,58 20,56.992 20,55.75 L20,51.25 Z M39,42 L42,42 L42,38 L39,38 L39,42 Z M45,38.25 C45,37.007 43.993,36 42.75,36 L38.25,36 C37.008,36 36,37.007 36,38.25 L36,41.75 C36,42.992 37.008,44 38.25,44 L42.75,44 C43.993,44 45,42.992 45,41.75 L45,38.25 Z M26,42 L30,42 L30,38 L26,38 L26,42 Z M33,38.25 C33,37.007 31.993,36 30.75,36 L26.25,36 C25.008,36 24,37.007 24,38.25 L24,41.75 C24,42.992 25.008,44 26.25,44 L30.75,44 C31.993,44 33,42.992 33,41.75 L33,38.25 Z M13,42 L17,42 L17,38 L13,38 L13,42 Z M20,38.25 C20,37.007 18.993,36 17.75,36 L13.25,36 C12.008,36 11,37.007 11,38.25 L11,42.75 C11,43.992 12.008,45 13.25,45 L17.75,45 C18.993,45 20,43.992 20,42.75 L20,38.25 Z M46,14 L46,2 C46,0.895 46.896,0 48,0 C49.105,0 50,0.895 50,2 L50,14 C50,15.104 49.105,16 48,16 C46.896,16 46,15.104 46,14 L46,14 Z M19,14 L19,2 C19,0.895 19.896,0 21,0 C22.105,0 23,0.895 23,2 L23,14 C23,15.104 22.105,16 21,16 C19.896,16 19,15.104 19,14 L19,14 Z M27.365,8 C27.365,6.895 28.26,6 29.365,6 L40.371,6 C41.475,6 42.371,6.895 42.371,8 C42.371,9.104 41.475,10 40.371,10 L29.365,10 C28.26,10 27.365,9.104 27.365,8 L27.365,8 Z M60.235,66 L8.235,66 C6.029,66 4,64.278 4,62.072 L4,28 L64,28 L64,62.072 C64,64.278 62.441,66 60.235,66 L60.235,66 Z M60.235,6 L56.457,6 C55.352,6 54.457,6.895 54.457,8 C54.457,9.104 55.352,10 56.457,10 L60.235,10 C62.441,10 64,11.866 64,14.072 L64,24 L4,24 L4,14.072 C4,11.866 6.029,10 8.235,10 L13.354,10 C14.458,10 15.354,9.104 15.354,8 C15.354,6.895 14.458,6 13.354,6 L8.235,6 C3.824,6 0,9.661 0,14.072 L0,62.072 C0,66.483 3.824,70 8.235,70 L60.235,70 C64.646,70 68,66.483 68,62.072 L68,14.072 C68,9.661 64.646,6 60.235,6 L60.235,6 Z" id="path-1"></path>
    </defs>
    <g id="TranZform-Icon-Library" stroke="none" stroke-width="1" fill="none" fill-rule="evenodd">
        <g id="TranZform-Icon-Library-01" transform="translate(-1123.000000, -373.000000)">
            <g id="12-Appointments" transform="translate(1067.000000, 340.000000)">
                <g id="ICON-Appointments" transform="translate(50.000000, 28.000000)">
                    <g id="contents" transform="translate(6.000000, 5.000000)">
                        <mask id="mask-2" fill="white">
                            <use xlink:href="#path-1"></use>
                        </mask>
                        <use id="Mask" fill="#424242" xlink:href="#path-1"></use>
                        <g id="MASK-DefaultGrey" mask="url(#mask-2)" fill="#5D5D5D">
                            <g transform="translate(-6.000000, -7.000000)" id="Rectangle">
                                <rect x="0" y="0" width="80" height="80"></rect>
                            </g>
                        </g>
                    </g>
                </g>
            </g>
        </g>
    </g>
</svg>