<?xml version="1.0" encoding="UTF-8" standalone="no"?>
<svg width="81px" height="80px" viewBox="0 0 81 80" version="1.1" xmlns="http://www.w3.org/2000/svg" xmlns:xlink="http://www.w3.org/1999/xlink">
    <!-- Generator: sketchtool 43.2 (39069) - http://www.bohemiancoding.com/sketch -->
    <title>ICON Hide</title>
    <desc>Created with sketchtool.</desc>
    <defs>
        <path d="M58.385,27.979 L46.364,40 L58.385,52.021 C60.142,53.778 60.142,56.627 58.385,58.385 C56.628,60.142 53.778,60.142 52.021,58.385 L40,46.364 L27.979,58.385 C26.222,60.142 23.373,60.142 21.615,58.385 L21.615,58.385 C19.858,56.627 19.858,53.778 21.615,52.021 L33.636,40 L21.615,27.979 C19.858,26.222 19.858,23.372 21.615,21.615 L21.615,21.615 C23.373,19.858 26.222,19.858 27.979,21.615 L40,33.636 L52.021,21.615 C53.778,19.858 56.628,19.858 58.385,21.615 C60.142,23.372 60.142,26.222 58.385,27.979 M40,76 C20.15,76 4,59.85 4,40 C4,20.149 20.15,4 40,4 C59.851,4 76,20.149 76,40 C76,59.85 59.851,76 40,76 M40,0 C17.909,0 0,17.908 0,40 C0,62.091 17.909,80 40,80 C62.092,80 80,62.091 80,40 C80,17.908 62.092,0 40,0" id="path-cross-icon"></path>
        <polygon id="path-3" points="38.852025 0.000375 0 0.000375 0 38.85165 38.852025 38.85165 38.852025 0.000375"></polygon>
    </defs>
    <g id="TranZform-Icon-Library" stroke="none" stroke-width="1" fill="none" fill-rule="evenodd">
        <g id="TranZform-Icon-Library-02" transform="translate(-703.000000, -577.000000)">
            <g id="34-Hide" transform="translate(653.400000, 550.000000)">
                <g id="ICON-Hide" transform="translate(50.000000, 28.000000)">
                    <g id="contents" transform="translate(0.000000, -1.000000)">
                        <mask id="mask-2" fill="white">
                            <use xlink:href="#path-cross-icon"></use>
                        </mask>
                        <use id="Mask" fill="#424242" xlink:href="#path-cross-icon"></use>
                        <g id="MASK-DefaultGrey" mask="url(#mask-2)" fill="#5D5D5D">
                            <rect id="Rectangle" x="0" y="0" width="80" height="80"></rect>
                        </g>
                    </g>
                    <g id="Page-1" transform="translate(21.000000, 19.000000)">
                        <mask id="mask-4" fill="white">
                            <use xlink:href="#path-3"></use>
                        </mask>
                        <g id="Clip-2"></g>
                    </g>
                </g>
            </g>
        </g>
    </g>
</svg>