<?xml version="1.0" encoding="UTF-8" standalone="no"?>
<svg width="281px" height="39px" viewBox="0 0 281 39" version="1.1" xmlns="http://www.w3.org/2000/svg" xmlns:xlink="http://www.w3.org/1999/xlink">
    <!-- Generator: Sketch 45.1 (43504) - http://www.bohemiancoding.com/sketch -->
    <title>Logo_TriZetto® EngageProvider™</title>
    <desc>Created with Sketch.</desc>
    <defs></defs>
    <g id="Page-1" stroke="none" stroke-width="1" fill="none" fill-rule="evenodd">
        <g id="CSR--Search-Results" transform="translate(-98.000000, -54.000000)">
            <g id="Header">
                <g id="Logo_TriZetto®-EngageProvider™" transform="translate(98.000000, 54.000000)">
                    <path d="M109.863151,33.7727604 L109.863151,31.3287996 L101.213446,31.3287996 L101.213446,26.0335512 L106.029487,26.0335512 L106.029487,23.5895904 L101.213446,23.5895904 L101.213446,19.4444412 L109.503745,19.4444412 L109.503745,17.0004804 L98.6976044,17.0004804 L98.6976044,33.7727604 L109.863151,33.7727604 Z M123.185133,33.7727604 L123.185133,26.56068 C123.185133,24.6917594 122.805764,23.2860967 122.047014,22.3436496 C121.288264,21.4012025 120.174117,20.929986 118.704538,20.929986 C118.049618,20.929986 117.438633,21.0577735 116.871568,21.3133524 C116.304502,21.5689312 115.861239,21.9283337 115.541766,22.3915704 L115.541766,21.1935504 L113.073844,21.1935504 L113.073844,33.7727604 L115.541766,33.7727604 L115.541766,26.4169176 C115.541766,25.3946021 115.765394,24.6039168 116.212657,24.044838 C116.65992,23.4857592 117.298857,23.206224 118.129489,23.206224 C118.944146,23.206224 119.579091,23.461799 120.034341,23.9729568 C120.48959,24.4841145 120.717212,25.3786272 120.717212,26.6565216 L120.717212,33.7727604 L123.185133,33.7727604 Z M136.74672,32.5747404 C136.74672,33.5331612 136.650879,34.3677734 136.459195,35.0786022 C136.267511,35.7894309 135.944048,36.3844416 135.488799,36.863652 C135.033549,37.3428624 134.422565,37.7102515 133.655828,37.9658304 C132.889091,38.2214092 131.938672,38.3651702 130.80454,38.3971176 L129.965926,36.5282064 C130.844479,36.4802853 131.567277,36.3844447 132.134343,36.2406816 C132.701408,36.0969185 133.140678,35.8772836 133.452165,35.5817706 C133.763651,35.2862575 133.979293,34.9108816 134.099095,34.4556318 C134.218898,34.0003819 134.278798,33.4453048 134.278798,32.790384 L134.278798,32.5747404 C133.815562,32.990056 133.324378,33.3374784 132.805234,33.6170178 C132.286089,33.8965572 131.691079,34.0363248 131.020184,34.0363248 C130.349289,34.0363248 129.718339,33.9085372 129.127312,33.6529584 C128.536286,33.3973795 128.025136,32.9980435 127.593847,32.4549384 C127.162557,31.9118333 126.819128,31.2129952 126.56355,30.3584034 C126.307971,29.5038115 126.180183,28.477518 126.180183,27.279492 C126.180183,26.2092554 126.315957,25.2748092 126.58751,24.4761252 C126.859063,23.6774412 127.226452,23.0145434 127.689688,22.487412 C128.152925,21.9602805 128.680049,21.5689312 129.271075,21.3133524 C129.862101,21.0577735 130.485065,20.929986 131.139986,20.929986 C131.778933,20.929986 132.377937,21.0737469 132.937016,21.3612732 C133.496095,21.6487994 133.943351,21.9842417 134.278798,22.36761 L134.278798,21.1935504 L136.74672,21.1935504 L136.74672,32.5747404 Z M134.326719,30.15474 L134.326719,24.8594916 C134.182956,24.6678074 134.007248,24.4761261 133.79959,24.284442 C133.591933,24.0927578 133.360318,23.91705 133.104739,23.7573132 C132.84916,23.5975764 132.573618,23.4657955 132.278105,23.3619666 C131.982592,23.2581377 131.68309,23.206224 131.37959,23.206224 C130.485064,23.206224 129.806193,23.5376729 129.342956,24.2005806 C128.879719,24.8634883 128.648104,25.8658217 128.648104,27.2076108 C128.648104,28.8049788 128.891699,29.9630532 129.378897,30.6818688 C129.866094,31.4006844 130.564932,31.7600868 131.475432,31.7600868 C132.066458,31.7600868 132.609555,31.596359 133.104739,31.2688986 C133.599923,30.9414381 134.007246,30.5700556 134.326719,30.15474 Z M150.020781,33.7727604 L147.600781,33.7727604 L147.600781,32.5268196 C147.169491,32.9581089 146.658341,33.3175113 146.067315,33.6050376 C145.476289,33.8925638 144.837351,34.0363248 144.150483,34.0363248 C143.639325,34.0363248 143.124182,33.9604509 142.605037,33.808701 C142.085893,33.656951 141.61867,33.413356 141.203354,33.0779088 C140.788038,32.7424615 140.448603,32.3031919 140.185037,31.7600868 C139.921471,31.2169817 139.78969,30.5620706 139.78969,29.795334 C139.78969,29.0924921 139.917478,28.4855013 140.173057,27.9743436 C140.428636,27.4631858 140.780051,27.0398896 141.227314,26.7044424 C141.674577,26.3689951 142.201701,26.1214068 142.808701,25.96167 C143.415701,25.8019332 144.078598,25.722066 144.797414,25.722066 C145.947519,25.722066 146.881965,25.8818004 147.600781,26.201274 L147.600781,25.2668184 C147.600781,24.5799501 147.397119,24.0528266 146.989791,23.685432 C146.582462,23.3180373 145.995438,23.1343428 145.228701,23.1343428 C144.57378,23.1343428 143.986756,23.1982365 143.467612,23.326026 C142.948467,23.4538154 142.44131,23.6534834 141.946126,23.925036 L140.98771,22.0561248 C141.59471,21.6887301 142.241635,21.4091949 142.928503,21.2175108 C143.615371,21.0258266 144.406056,20.929986 145.300582,20.929986 C146.706266,20.929986 147.844374,21.2774083 148.714939,21.9722634 C149.585505,22.6671184 150.020781,23.7253589 150.020781,25.1470164 L150.020781,33.7727604 Z M147.600781,30.2026608 L147.600781,28.4056308 C147.265334,28.2299203 146.869991,28.094146 146.414741,27.998304 C145.959491,27.9024619 145.396427,27.8545416 144.725533,27.8545416 C143.926849,27.8545416 143.295898,28.0222627 142.832661,28.35771 C142.369424,28.6931572 142.13781,29.1484003 142.13781,29.7234528 C142.13781,30.3464263 142.337478,30.8495897 142.73682,31.232958 C143.136162,31.6163263 143.743152,31.8080076 144.55781,31.8080076 C145.228705,31.8080076 145.831702,31.6402864 146.36682,31.3048392 C146.901938,30.9693919 147.313255,30.6020028 147.600781,30.2026608 Z M163.582368,32.5747404 C163.582368,33.5331612 163.486527,34.3677734 163.294843,35.0786022 C163.103159,35.7894309 162.779696,36.3844416 162.324447,36.863652 C161.869197,37.3428624 161.258213,37.7102515 160.491476,37.9658304 C159.724739,38.2214092 158.77432,38.3651702 157.640188,38.3971176 L156.801574,36.5282064 C157.680127,36.4802853 158.402925,36.3844447 158.969991,36.2406816 C159.537056,36.0969185 159.976326,35.8772836 160.287813,35.5817706 C160.599299,35.2862575 160.814941,34.9108816 160.934743,34.4556318 C161.054546,34.0003819 161.114446,33.4453048 161.114446,32.790384 L161.114446,32.5747404 C160.65121,32.990056 160.160026,33.3374784 159.640882,33.6170178 C159.121737,33.8965572 158.526727,34.0363248 157.855832,34.0363248 C157.184937,34.0363248 156.553987,33.9085372 155.96296,33.6529584 C155.371934,33.3973795 154.860784,32.9980435 154.429495,32.4549384 C153.998205,31.9118333 153.654776,31.2129952 153.399198,30.3584034 C153.143619,29.5038115 153.015831,28.477518 153.015831,27.279492 C153.015831,26.2092554 153.151605,25.2748092 153.423158,24.4761252 C153.694711,23.6774412 154.0621,23.0145434 154.525336,22.487412 C154.988573,21.9602805 155.515697,21.5689312 156.106723,21.3133524 C156.697749,21.0577735 157.320713,20.929986 157.975634,20.929986 C158.614581,20.929986 159.213585,21.0737469 159.772664,21.3612732 C160.331743,21.6487994 160.778999,21.9842417 161.114446,22.36761 L161.114446,21.1935504 L163.582368,21.1935504 L163.582368,32.5747404 Z M161.162367,30.15474 L161.162367,24.8594916 C161.018604,24.6678074 160.842896,24.4761261 160.635238,24.284442 C160.427581,24.0927578 160.195966,23.91705 159.940387,23.7573132 C159.684808,23.5975764 159.409266,23.4657955 159.113753,23.3619666 C158.81824,23.2581377 158.518738,23.206224 158.215238,23.206224 C157.320712,23.206224 156.641841,23.5376729 156.178604,24.2005806 C155.715367,24.8634883 155.483752,25.8658217 155.483752,27.2076108 C155.483752,28.8049788 155.727347,29.9630532 156.214545,30.6818688 C156.701742,31.4006844 157.40058,31.7600868 158.31108,31.7600868 C158.902106,31.7600868 159.445203,31.596359 159.940387,31.2688986 C160.435571,30.9414381 160.842894,30.5700556 161.162367,30.15474 Z M177.431479,27.2315712 C177.431479,27.4552027 177.423492,27.6668508 177.407518,27.8665218 C177.391545,28.0661928 177.375571,28.2299205 177.359598,28.35771 L169.045339,28.35771 C169.109234,28.9647098 169.237021,29.4838466 169.428705,29.915136 C169.620389,30.3464253 169.859991,30.7018344 170.147517,30.9813738 C170.435043,31.2609132 170.754512,31.4685679 171.105933,31.6043442 C171.457354,31.7401204 171.824743,31.8080076 172.208112,31.8080076 C172.735243,31.8080076 173.21844,31.7201536 173.657716,31.5444432 C174.096992,31.3687327 174.524282,31.1211444 174.939597,30.8016708 L176.401182,32.3830572 C175.842103,32.9101886 175.219139,33.3175113 174.53227,33.6050376 C173.845402,33.8925638 173.02277,34.0363248 172.064349,34.0363248 C171.32956,34.0363248 170.630722,33.8925638 169.967814,33.6050376 C169.304906,33.3175113 168.725869,32.8942152 168.230685,32.3351364 C167.735501,31.7760576 167.344152,31.0891996 167.056626,30.274542 C166.769099,29.4598843 166.625338,28.5334248 166.625338,27.4951356 C166.625338,26.424899 166.761113,25.482466 167.032665,24.6678084 C167.304218,23.8531507 167.679594,23.1702861 168.158804,22.6191942 C168.638014,22.0681022 169.217052,21.6487994 169.895933,21.3612732 C170.574814,21.0737469 171.321573,20.929986 172.13623,20.929986 C173.030756,20.929986 173.809462,21.0977071 174.472369,21.4331544 C175.135277,21.7686016 175.686361,22.2238447 176.125637,22.7988972 C176.564913,23.3739496 176.892369,24.0448341 177.108013,24.8115708 C177.323658,25.5783074 177.431479,26.3849661 177.431479,27.2315712 Z M174.939597,26.321076 C174.90765,25.8897866 174.831776,25.4824639 174.711973,25.0990956 C174.592171,24.7157273 174.41247,24.380285 174.172864,24.0927588 C173.933259,23.8052325 173.633757,23.577611 173.274349,23.4098874 C172.914942,23.2421637 172.479665,23.1583032 171.968508,23.1583032 C171.137876,23.1583032 170.478972,23.433845 169.991775,23.984937 C169.504577,24.5360289 169.205075,25.3147341 169.09326,26.321076 L174.939597,26.321076 Z M193.269303,22.247808 C193.269303,23.1103867 193.133529,23.8691251 192.861976,24.524046 C192.590424,25.1789668 192.207061,25.7300505 191.711877,26.1773136 C191.216693,26.6245766 190.629669,26.9600189 189.950788,27.1836504 C189.271906,27.4072819 188.525148,27.519096 187.71049,27.519096 L183.325737,27.519096 L183.325737,33.7727604 L180.857816,33.7727604 L180.857816,17.0004804 L187.878213,17.0004804 C188.64495,17.0004804 189.359761,17.1122945 190.022669,17.335926 C190.685577,17.5595575 191.256627,17.8910064 191.735838,18.3302826 C192.215048,18.7695588 192.590424,19.3166491 192.861976,19.97157 C193.133529,20.6264908 193.269303,21.3852293 193.269303,22.247808 Z M190.70554,22.247808 C190.70554,21.3213345 190.445972,20.6105164 189.926827,20.1153324 C189.407683,19.6201483 188.708845,19.37256 187.830292,19.37256 L183.325737,19.37256 L183.325737,25.1470164 L187.830292,25.1470164 C188.788713,25.1470164 189.507518,24.8914413 189.986728,24.3802836 C190.465939,23.8691258 190.70554,23.1583077 190.70554,22.247808 Z M203.620196,21.4571148 C203.364617,21.2814043 203.073102,21.1496234 202.745641,21.0617682 C202.418181,20.9739129 201.998878,20.929986 201.48772,20.929986 C200.864747,20.929986 200.301683,21.0697536 199.798512,21.349293 C199.295341,21.6288324 198.899999,21.9762547 198.612472,22.3915704 L198.612472,21.1935504 L196.144551,21.1935504 L196.144551,33.7727604 L198.612472,33.7727604 L198.612472,26.5846404 C198.612472,25.5144038 198.828114,24.7077451 199.259403,24.16464 C199.690693,23.6215349 200.297683,23.3499864 201.080394,23.3499864 C201.495709,23.3499864 201.847125,23.38992 202.134651,23.4697884 C202.422177,23.5496568 202.701713,23.6614709 202.973265,23.805234 L203.620196,21.4571148 Z M215.576436,27.4232544 C215.576436,28.4615436 215.432675,29.3919965 215.145148,30.214641 C214.857622,31.0372855 214.458286,31.7321301 213.947128,32.2991958 C213.435971,32.8662614 212.836967,33.2975443 212.150098,33.5930574 C211.46323,33.8885704 210.712478,34.0363248 209.897821,34.0363248 C209.099137,34.0363248 208.364359,33.8805837 207.693464,33.569097 C207.022569,33.2576102 206.439539,32.8143472 205.944355,32.2392948 C205.449171,31.6642423 205.061815,30.9773844 204.782275,30.1787004 C204.502736,29.3800164 204.362968,28.4855037 204.362968,27.4951356 C204.362968,26.4728201 204.506729,25.5543472 204.794256,24.7396896 C205.081782,23.9250319 205.477124,23.2341806 205.980295,22.667115 C206.483466,22.1000493 207.074484,21.6687664 207.753365,21.3732534 C208.432246,21.0777403 209.171018,20.929986 209.969702,20.929986 C210.768386,20.929986 211.511151,21.085727 212.198019,21.3972138 C212.884887,21.7087005 213.479898,22.1439768 213.983069,22.7030556 C214.48624,23.2621344 214.877589,23.9449989 215.157129,24.7516698 C215.436668,25.5583406 215.576436,26.4488599 215.576436,27.4232544 Z M213.084554,27.4951356 C213.084554,26.2012675 212.801025,25.174974 212.23396,24.4162242 C211.666894,23.6574744 210.880202,23.2781052 209.87386,23.2781052 C208.931413,23.2781052 208.192642,23.6574744 207.657523,24.4162242 C207.122405,25.174974 206.85485,26.1773073 206.85485,27.4232544 C206.85485,28.8129645 207.142372,29.8712049 207.717424,30.5980074 C208.292477,31.3248098 209.051215,31.6882056 209.993662,31.6882056 C210.456899,31.6882056 210.880195,31.5763915 211.263564,31.35276 C211.646932,31.1291285 211.974387,30.8296264 212.24594,30.454245 C212.517493,30.0788635 212.725147,29.6356005 212.86891,29.1244428 C213.012674,28.613285 213.084554,28.070188 213.084554,27.4951356 Z M228.131685,21.1935504 L225.520002,21.1935504 L223.363566,28.0222644 C223.171881,28.6292642 223.000167,29.2083014 222.848417,29.7593934 C222.696667,30.3104853 222.58086,30.761735 222.500991,31.113156 C222.421123,30.761735 222.297329,30.3104853 222.129605,29.7593934 C221.961881,29.2083014 221.774193,28.6292642 221.566536,28.0222644 L219.314258,21.1935504 L216.726535,21.1935504 L221.23109,33.7727604 L223.699011,33.7727604 L228.131685,21.1935504 Z M233.690498,17.9828568 C233.690498,17.5355937 233.534757,17.1562245 233.22327,16.8447378 C232.911783,16.533251 232.540401,16.37751 232.109112,16.37751 C231.661849,16.37751 231.282479,16.533251 230.970993,16.8447378 C230.659506,17.1562245 230.503765,17.5355937 230.503765,17.9828568 C230.503765,18.4141461 230.659506,18.7855286 230.970993,19.0970154 C231.282479,19.4085021 231.661849,19.5642432 232.109112,19.5642432 C232.540401,19.5642432 232.911783,19.4085021 233.22327,19.0970154 C233.534757,18.7855286 233.690498,18.4141461 233.690498,17.9828568 Z M233.331092,33.7727604 L233.331092,21.1935504 L230.863171,21.1935504 L230.863171,33.7727604 L233.331092,33.7727604 Z M247.108322,33.7727604 L244.664361,33.7727604 L244.664361,32.5747404 C244.201124,32.990056 243.705948,33.3374784 243.178816,33.6170178 C242.651685,33.8965572 242.052681,34.0363248 241.381786,34.0363248 C240.710892,34.0363248 240.079941,33.9085372 239.488915,33.6529584 C238.897889,33.3973795 238.382745,32.9980435 237.943469,32.4549384 C237.504193,31.9118333 237.160764,31.2129952 236.913172,30.3584034 C236.66558,29.5038115 236.541786,28.477518 236.541786,27.279492 C236.541786,26.2092554 236.67756,25.2748092 236.949112,24.4761252 C237.220665,23.6774412 237.584061,23.0145434 238.039311,22.487412 C238.49456,21.9602805 239.021684,21.5689312 239.620697,21.3133524 C240.21971,21.0577735 240.846668,20.929986 241.501588,20.929986 C242.140536,20.929986 242.73954,21.0737469 243.298618,21.3612732 C243.857697,21.6487994 244.31294,21.9842417 244.664361,22.36761 L244.664361,17.57553 L247.108322,16.3056288 L247.108322,33.7727604 Z M244.688322,30.15474 L244.688322,24.8594916 C244.544558,24.6678074 244.368851,24.4761261 244.161193,24.284442 C243.953535,24.0927578 243.72192,23.91705 243.466341,23.7573132 C243.210762,23.5975764 242.93522,23.4657955 242.639707,23.3619666 C242.344194,23.2581377 242.044692,23.206224 241.741192,23.206224 C240.846666,23.206224 240.167795,23.5376729 239.704558,24.2005806 C239.241322,24.8634883 239.009707,25.8658217 239.009707,27.2076108 C239.009707,28.8049788 239.253302,29.9630532 239.740499,30.6818688 C240.227696,31.4006844 240.926534,31.7600868 241.837034,31.7600868 C242.42806,31.7600868 242.971157,31.596359 243.466341,31.2688986 C243.961525,30.9414381 244.368848,30.5700556 244.688322,30.15474 Z M260.957433,27.2315712 C260.957433,27.4552027 260.949446,27.6668508 260.933473,27.8665218 C260.917499,28.0661928 260.901526,28.2299205 260.885552,28.35771 L252.571293,28.35771 C252.635188,28.9647098 252.762975,29.4838466 252.95466,29.915136 C253.146344,30.3464253 253.385945,30.7018344 253.673472,30.9813738 C253.960998,31.2609132 254.280467,31.4685679 254.631888,31.6043442 C254.983309,31.7401204 255.350698,31.8080076 255.734066,31.8080076 C256.261197,31.8080076 256.744394,31.7201536 257.18367,31.5444432 C257.622946,31.3687327 258.050236,31.1211444 258.465552,30.8016708 L259.927136,32.3830572 C259.368057,32.9101886 258.745093,33.3175113 258.058225,33.6050376 C257.371357,33.8925638 256.548724,34.0363248 255.590304,34.0363248 C254.855514,34.0363248 254.156676,33.8925638 253.493769,33.6050376 C252.830861,33.3175113 252.251824,32.8942152 251.75664,32.3351364 C251.261456,31.7760576 250.870106,31.0891996 250.58258,30.274542 C250.295054,29.4598843 250.151293,28.5334248 250.151293,27.4951356 C250.151293,26.424899 250.287067,25.482466 250.55862,24.6678084 C250.830172,23.8531507 251.205548,23.1702861 251.684758,22.6191942 C252.163969,22.0681022 252.743006,21.6487994 253.421887,21.3612732 C254.100769,21.0737469 254.847527,20.929986 255.662185,20.929986 C256.556711,20.929986 257.335416,21.0977071 257.998324,21.4331544 C258.661232,21.7686016 259.212315,22.2238447 259.651591,22.7988972 C260.090868,23.3739496 260.418323,24.0448341 260.633968,24.8115708 C260.849612,25.5783074 260.957433,26.3849661 260.957433,27.2315712 Z M258.465552,26.321076 C258.433604,25.8897866 258.35773,25.4824639 258.237928,25.0990956 C258.118125,24.7157273 257.938424,24.380285 257.698819,24.0927588 C257.459214,23.8052325 257.159712,23.577611 256.800304,23.4098874 C256.440896,23.2421637 256.00562,23.1583032 255.494462,23.1583032 C254.663831,23.1583032 254.004926,23.433845 253.517729,23.984937 C253.030532,24.5360289 252.73103,25.3147341 252.619214,26.321076 L258.465552,26.321076 Z M271.500009,21.4571148 L270.853078,23.805234 C270.581526,23.6614709 270.301991,23.5496568 270.014464,23.4697884 C269.726938,23.38992 269.375522,23.3499864 268.960207,23.3499864 C268.177496,23.3499864 267.570506,23.6215349 267.139216,24.16464 C266.707927,24.7077451 266.492286,25.5144038 266.492286,26.5846404 L266.492286,33.7727604 L264.024364,33.7727604 L264.024364,21.1935504 L266.492286,21.1935504 L266.492286,22.3915704 C266.779812,21.9762547 267.175154,21.6288324 267.678325,21.349293 C268.181496,21.0697536 268.74456,20.929986 269.367534,20.929986 C269.878691,20.929986 270.297994,20.9739129 270.625455,21.0617682 C270.952915,21.1496234 271.24443,21.2814043 271.500009,21.4571148 Z M274.159,20.294 L274.159,24.475 L273.424,24.475 L273.424,20.294 L271.995,20.294 L271.995,19.573 L275.588,19.573 L275.588,20.294 L274.159,20.294 Z M280.216,24.475 L280.216,21.883 C280.216,21.59 280.223,21.163 280.229,21.022 C280.173,21.163 280.033,21.512 279.914,21.794 L278.724,24.553 L277.547,21.794 C277.428,21.512 277.288,21.163 277.231,21.022 C277.238,21.163 277.246,21.59 277.246,21.883 L277.246,24.475 L276.553,24.475 L276.553,19.573 L277.308,19.573 L278.408,22.186 C278.527,22.465 278.682,22.823 278.744,23.026 C278.814,22.823 278.955,22.473 279.074,22.186 L280.152,19.573 L280.936,19.573 L280.936,24.475 L280.216,24.475 Z" id="EngageProvider" fill="#67AB44"></path>
                    <path d="M7.528,19.174 L7.528,33.475 L5.012,33.475 L5.012,19.174 L0.125,19.174 L0.125,16.706 L12.415,16.706 L12.415,19.174 L7.528,19.174 Z M19.796,23.51 C19.269,23.223 18.718,23.055 17.904,23.055 C16.346,23.055 15.436,24.157 15.436,26.29 L15.436,33.475 L12.968,33.475 L12.968,20.899 L15.436,20.899 L15.436,22.096 C16.011,21.258 17.065,20.635 18.311,20.635 C19.317,20.635 19.94,20.827 20.443,21.163 L19.796,23.51 Z M23.104,33.475 L23.104,20.899 L25.572,20.899 L25.572,33.475 L23.104,33.475 Z M24.35,19.27 C23.463,19.27 22.744,18.551 22.744,17.689 C22.744,16.802 23.463,16.083 24.35,16.083 C25.212,16.083 25.931,16.802 25.931,17.689 C25.931,18.551 25.212,19.27 24.35,19.27 Z M28.951,33.475 L28.951,31.032 L37.144,21.137 C37.67,20.491 38.605,19.413 39.036,18.982 C38.366,19.006 36.64,19.03 35.659,19.03 L29.429,19.03 L29.429,16.706 L41.695,16.706 L41.695,19.149 L33.598,29.044 C33.071,29.69 32.137,30.768 31.705,31.2 C32.376,31.176 34.101,31.151 35.083,31.151 L41.695,31.151 L41.695,33.475 L28.951,33.475 Z M54.537,28.061 L46.225,28.061 C46.489,30.481 47.854,31.51 49.387,31.51 C50.441,31.51 51.28,31.128 52.118,30.504 L53.579,32.086 C52.477,33.141 51.16,33.739 49.243,33.739 C46.296,33.739 43.805,31.368 43.805,27.2 C43.805,22.934 46.057,20.635 49.315,20.635 C52.884,20.635 54.61,23.534 54.61,26.936 C54.61,27.391 54.562,27.798 54.537,28.061 Z M49.148,22.864 C47.494,22.864 46.489,24.012 46.273,26.026 L52.118,26.026 C51.998,24.301 51.184,22.864 49.148,22.864 Z M63.499,33.165 C62.9,33.501 62.062,33.739 61.079,33.739 C59.33,33.739 58.252,32.661 58.252,30.409 L58.252,23.151 L56.456,23.151 L56.456,20.899 L58.252,20.899 L58.252,17.305 L60.672,16.012 L60.672,20.899 L63.786,20.899 L63.786,23.151 L60.672,23.151 L60.672,29.977 C60.672,31.151 61.056,31.487 61.966,31.487 C62.613,31.487 63.331,31.249 63.786,30.985 L63.499,33.165 Z M72.796,33.165 C72.197,33.501 71.359,33.739 70.376,33.739 C68.627,33.739 67.549,32.661 67.549,30.409 L67.549,23.151 L65.753,23.151 L65.753,20.899 L67.549,20.899 L67.549,17.305 L69.969,16.012 L69.969,20.899 L73.083,20.899 L73.083,23.151 L69.969,23.151 L69.969,29.977 C69.969,31.151 70.353,31.487 71.263,31.487 C71.91,31.487 72.628,31.249 73.083,30.985 L72.796,33.165 Z M80.896,33.739 C77.734,33.739 75.362,31.128 75.362,27.2 C75.362,23.079 77.805,20.635 80.967,20.635 C84.178,20.635 86.574,23.198 86.574,27.128 C86.574,31.296 84.13,33.739 80.896,33.739 Z M80.871,22.983 C79.003,22.983 77.853,24.635 77.853,27.128 C77.853,29.882 79.122,31.391 80.992,31.391 C82.86,31.391 84.081,29.499 84.081,27.2 C84.081,24.635 82.86,22.983 80.871,22.983 Z M90.724,24.553 C89.288,24.553 88.196,23.46 88.196,22.024 C88.196,20.588 89.288,19.496 90.724,19.496 C92.16,19.496 93.252,20.588 93.252,22.024 C93.252,23.46 92.16,24.553 90.724,24.553 Z M90.724,19.903 C89.519,19.903 88.602,20.819 88.602,22.024 C88.602,23.229 89.519,24.147 90.724,24.147 C91.928,24.147 92.846,23.229 92.846,22.024 C92.846,20.819 91.928,19.903 90.724,19.903 Z M91.291,22.241 L91.859,23.356 L91.305,23.356 L90.766,22.29 L90.234,22.29 L90.234,23.356 L89.764,23.356 L89.764,20.596 L90.976,20.596 C91.466,20.596 91.879,20.854 91.879,21.428 C91.879,21.864 91.649,22.137 91.291,22.241 Z M90.962,21.051 L90.234,21.051 L90.234,21.835 L90.962,21.835 C91.214,21.835 91.404,21.715 91.404,21.444 C91.404,21.184 91.214,21.051 90.962,21.051 Z" id="Trizetto" fill="#55AABE"></path>
                    <path d="M4.949,3.311 C4.964,2.687 4.918,2.062 4.631,1.711 C4.342,1.362 3.69,1.241 3.4,1.241 C2.248,1.241 1.793,1.94 1.745,2.093 C1.702,2.214 1.427,2.486 1.427,4.376 L1.427,7.314 C1.427,10.009 2.307,10.329 3.382,10.329 C3.81,10.329 5.102,10.179 5.116,8.029 L6.558,8.029 C6.619,11.506 4.174,11.506 3.46,11.506 C2.095,11.506 0,11.413 0,7.148 L0,4.041 C0,0.934 1.365,0.049 3.52,0.049 C5.692,0.049 6.529,1.181 6.39,3.311 L4.949,3.311 Z M7.772,7.543 C7.772,5.291 8.031,3.436 10.686,3.436 C13.345,3.436 13.602,5.291 13.602,7.543 C13.602,10.941 12.312,11.426 10.686,11.426 C9.062,11.426 7.772,10.941 7.772,7.543 Z M10.686,4.455 C9.732,4.455 9.077,4.909 9.077,7.014 C9.077,9.511 9.397,10.407 10.686,10.407 C11.978,10.407 12.296,9.511 12.296,7.014 C12.296,4.909 11.645,4.455 10.686,4.455 Z M19.191,3.585 L20.435,3.585 L20.435,12.05 C20.435,13.773 19.296,14.184 17.61,14.184 C16.336,14.184 15.181,13.543 15.288,12.129 L16.686,12.129 C16.701,12.848 17.169,13.24 17.854,13.24 C18.718,13.24 19.191,12.704 19.191,11.917 L19.191,10.315 L19.143,10.315 C18.826,10.924 18.128,11.273 17.459,11.273 C15.379,11.273 14.969,9.479 14.969,7.193 C14.969,3.66 16.746,3.436 17.367,3.436 C18.174,3.436 18.808,3.782 19.161,4.531 L19.191,4.531 L19.191,3.585 Z M17.733,4.467 C16.32,4.467 16.275,6.173 16.275,7.193 C16.275,9.661 16.838,10.239 17.763,10.239 C19.266,10.239 19.219,8.46 19.219,7.392 C19.219,6.248 19.296,4.467 17.733,4.467 Z M26.616,11.274 L26.616,5.945 C26.616,5.123 26.328,4.455 25.265,4.455 C23.897,4.455 23.699,5.668 23.699,6.719 L23.699,11.274 L22.456,11.274 L22.456,5.183 C22.456,4.651 22.425,4.119 22.378,3.585 L23.699,3.585 L23.699,4.575 L23.76,4.575 C24.244,3.707 24.824,3.437 25.81,3.437 C27.449,3.437 27.862,4.423 27.862,5.945 L27.862,11.274 L26.616,11.274 Z M30.136,11.274 L30.136,3.585 L31.382,3.585 L31.382,11.274 L30.136,11.274 Z M30.06,1.62 L30.06,0.279 L31.456,0.279 L31.456,1.62 L30.06,1.62 Z M38.015,4.727 L34.631,10.254 L38.123,10.254 L38.123,11.273 L33.278,11.273 L33.278,10.105 L36.62,4.635 L36.62,4.607 L33.443,4.607 L33.443,3.585 L38.015,3.585 L38.015,4.727 Z M43.526,10.164 L43.495,10.164 C43.117,11.044 42.523,11.426 41.568,11.426 C39.943,11.426 39.475,10.375 39.475,8.9 C39.475,6.568 41.751,6.463 43.495,6.507 C43.526,5.487 43.543,4.376 42.206,4.376 C41.369,4.376 40.932,4.94 41.006,5.746 L39.656,5.746 C39.715,4.025 40.626,3.436 42.25,3.436 C44.224,3.436 44.742,4.455 44.742,5.746 L44.742,9.45 C44.742,10.059 44.801,10.684 44.894,11.274 L43.526,11.274 L43.526,10.164 Z M40.717,8.993 C40.717,9.737 41.082,10.406 41.917,10.406 C42.675,10.406 43.616,9.935 43.495,7.454 C42.313,7.469 40.717,7.361 40.717,8.993 Z M50.921,11.274 L50.921,5.945 C50.921,5.123 50.631,4.455 49.569,4.455 C48.202,4.455 48.005,5.668 48.005,6.719 L48.005,11.274 L46.758,11.274 L46.758,5.183 C46.758,4.651 46.729,4.119 46.686,3.585 L48.005,3.585 L48.005,4.575 L48.066,4.575 C48.552,3.707 49.129,3.437 50.116,3.437 C51.756,3.437 52.165,4.423 52.165,5.945 L52.165,11.274 L50.921,11.274 Z M54.625,3.585 L54.625,2.107 L55.869,1.546 L55.869,3.585 L57.541,3.585 L57.541,4.531 L55.869,4.531 L55.869,9.236 C55.869,9.72 55.869,10.347 57.009,10.347 C57.102,10.347 57.298,10.315 57.571,10.285 L57.571,11.244 C57.161,11.273 56.751,11.364 56.34,11.364 C55.156,11.364 54.625,10.877 54.625,9.995 L54.625,4.531 L53.365,4.531 L53.365,3.585 L54.625,3.585 Z" id="Cognizant" fill="#586064"></path>
                </g>
            </g>
        </g>
    </g>
</svg>