<?xml version="1.0" encoding="utf-8"?>
<!-- Generator: Adobe Illustrator 20.1.0, SVG Export Plug-In . SVG Version: 6.00 Build 0)  -->
<svg version="1.1" id="Layer_1" xmlns="http://www.w3.org/2000/svg" xmlns:xlink="http://www.w3.org/1999/xlink" x="0px" y="0px"
	 viewBox="0 0 80 80" style="enable-background:new 0 0 80 80;" xml:space="preserve">
<style type="text/css">
	.st0{fill:#333333;}
</style>
<g id="Page-1">
	<g id="Restore_Icon" transform="translate(0.665039, 0.000000)">
		<path id="path-1" class="st0" d="M22.6,26c-2.4,0-4.3,2-4.3,4.3v19.3c0,2.4,1.9,4.3,4.3,4.3H56c2.4,0,4.3-2,4.3-4.3V30.3
			c0-2.4-1.9-4.3-4.3-4.3H22.6z M23.5,28.9h31.7L39.8,42.8c-0.2,0.2-0.8,0.2-1,0L23.5,28.9z M21.2,30.7l10.7,9.7l-10.7,9V30.7z
			 M57.5,30.7v18.7l-10.7-9L57.5,30.7z M34.1,42.4l2.8,2.6c1.4,1.3,3.4,1.3,4.8,0l2.8-2.6L55,51.1H23.6L34.1,42.4z"/>
		<path id="path-1-path" class="st0" d="M-0.7,40L-0.7,40c0,22.1,17.9,40,40,40s40-17.9,40-40S61.4,0,39.3,0C27.7,0,16.8,5,9.1,13.8
			L3.5,8.2L1.7,24.8L18.3,23l-5.7-5.7C19.4,9.5,29.1,5,39.3,5c19.3,0,35,15.7,35,35s-15.7,35-35,35c-19.3,0-34.9-15.6-35-34.9
			c0-0.1,0-0.2,0-0.3c0-1.5-1.1-2.7-2.5-2.7s-2.5,1.2-2.5,2.7C-0.7,39.9-0.7,40-0.7,40z"/>
	</g>
</g>
</svg>
