<?xml version="1.0" encoding="UTF-8" standalone="no"?>
<svg width="59px" height="78px" viewBox="0 0 59 78" version="1.1" xmlns="http://www.w3.org/2000/svg" xmlns:xlink="http://www.w3.org/1999/xlink">
    <!-- Generator: sketchtool 45 (43471) - http://www.bohemiancoding.com/sketch -->
    <title>ICON PDF?</title>
    <desc>Created with sketchtool.</desc>
    <defs>
        <path d="M11.734,31.5 C11.734,30.672 12.406,30 13.234,30 L24.76,30 C25.588,30 26.26,30.672 26.26,31.5 C26.26,32.328 25.588,33 24.76,33 L13.234,33 C12.406,33 11.734,32.328 11.734,31.5 L11.734,31.5 Z M11.734,38.5 C11.734,37.672 12.406,37 13.234,37 L35.608,37 C36.436,37 37.108,37.672 37.108,38.5 C37.108,39.328 36.436,40 35.608,40 L13.234,40 C12.406,40 11.734,39.328 11.734,38.5 L11.734,38.5 Z M40,51 L50,51 L50,54 L44,54 L44,58 L49,58 L49,61 L44,61 L44,67 L40,67 L40,51 Z M32.333,62.557 C31.425,63.514 30.174,64 28.579,64 L27,64 L27,54 L28.556,54 C30.182,54 31.444,54.26 32.346,55.152 C33.245,56.046 33.696,57.18 33.696,58.738 C33.696,60.387 33.241,61.6 32.333,62.557 L32.333,62.557 Z M28.864,51 L23,51 L23,67 L28.864,67 C31.5,67 33.61,66.226 35.195,64.707 C36.778,63.187 37.57,61.333 37.57,58.788 C37.57,53.477 34.668,51 28.864,51 L28.864,51 Z M13.866,59 L12,59 L12,53 L13.866,53 C15.826,53 16.806,54.292 16.806,55.971 C16.806,57.689 15.826,59 13.866,59 L13.866,59 Z M14.504,51 L9,51 L9,67 L12,67 L12,61 L14.174,61 C16.149,61 17.727,60.664 18.908,59.649 C20.09,58.636 20.681,57.579 20.681,55.937 C20.681,52.465 18.622,51 14.504,51 L14.504,51 Z M50.367,74 L8.101,74 C5.896,74 4,72.039 4,69.834 L4,8.398 C4,6.193 5.896,4 8.101,4 L32,4 L32,17.834 C32,23.347 36.587,28 42.101,28 L54,28 L54,69.834 C54,72.039 52.572,74 50.367,74 L50.367,74 Z M36,6.935 L52.036,24 L42.101,24 C38.792,24 36,21.142 36,17.834 L36,6.935 Z M35.319,0 L8.101,0 C3.683,0 0,3.98 0,8.398 L0,69.834 C0,74.252 3.683,78 8.101,78 L50.367,78 C54.785,78 58,74.252 58,69.834 L58,24.869 L35.319,0 Z" id="path-pdf-icon"></path>
    </defs>
    <g id="TranZform-Icon-Library" stroke="none" stroke-width="1" fill="none" fill-rule="evenodd">
        <g id="TranZform-Icon-Library-03" transform="translate(-714.000000, -158.000000)">
            <g id="40-PDF?" transform="translate(653.400000, 130.000000)">
                <g id="ICON-PDF-File-Format" transform="translate(50.000000, 28.000000)">
                    <g id="contents" transform="translate(11.000000, 0.000000)">
                        <mask id="mask-2" fill="white">
                            <use xlink:href="#path-pdf-icon"></use>
                        </mask>
                        <use id="Mask" fill="#424242" xlink:href="#path-pdf-icon"></use>
                        <g id="MASK-DefaultGrey" mask="url(#mask-2)" fill="#5D5D5D">
                            <g transform="translate(-11.000000, -1.000000)" id="Rectangle">
                                <!-- <rect x="0" y="0" width="80" height="80"></rect>-->
                            </g>
                        </g>
                    </g>
                </g>
            </g>
        </g>
    </g>
</svg>