<?xml version="1.0" encoding="UTF-8" standalone="no"?>
<svg width="60px" height="80px" viewBox="0 0 60 80" version="1.1" xmlns="http://www.w3.org/2000/svg" xmlns:xlink="http://www.w3.org/1999/xlink">
    <!-- Generator: sketchtool 45 (43471) - http://www.bohemiancoding.com/sketch -->
    <title>ICON Excel</title>
    <desc>Created with sketchtool.</desc>
    <defs>
        <polygon id="path-excel-icon" points="29.7436667 80 59.4866667 80 59.4866667 0 29.7436667 0 0.000666666665 0 0.000666666665 80 29.7436667 80"></polygon>
    </defs>
    <g id="TranZform-Icon-Library" stroke="none" stroke-width="1" fill="none" fill-rule="evenodd">
        <g id="TZF-Provider-Icon-Library-03" transform="translate(-507.000000, -368.000000)">
            <g id="45-Excel" transform="translate(447.000000, 340.000000)">
                <g id="ICON-Excel" transform="translate(50.000000, 28.000000)">
                    <g id="Contents" transform="translate(10.000000, 0.000000)">
                        <g id="Group-3">
                            <mask id="mask-2" fill="white">
                                <use xlink:href="#path-excel-icon"></use>
                            </mask>
                            <g id="Clip-2"></g>
                            <path d="M35.984,0 L8.06733333,0 C3.53733333,0 0.000666666665,3.96333333 0.000666666665,8.49333333 L0.000666666665,71.5066667 C0.000666666665,76.0366667 3.53733333,80 8.06733333,80 L51.4173333,80 C55.9506667,80 59.4873333,76.0366667 59.4873333,71.5066667 L59.4873333,25.3866667 L35.984,0 Z M34.264,4.10333333 L55.384,27.0666667 L55.384,71.5066667 C55.384,73.7666667 53.6806667,75.8966667 51.4173333,75.8966667 L8.06733333,75.8966667 C5.80733333,75.8966667 4.104,73.7666667 4.104,71.5066667 L4.104,8.49333333 C4.104,6.23333333 5.80733333,4.10333333 8.06733333,4.10333333 L33.8473333,4.10333333 L34.264,4.10333333 Z" id="Fill-1" fill="#5D5D5D"></path>
                        </g>
                        <path d="M57.0953333,28.718 L42.942,28.718 C37.2853333,28.718 32.822,23.828 32.822,18.1713333 L32.822,2.438 C32.822,1.30466667 33.7386667,0.388 34.872,0.388 C36.0053333,0.388 36.922,1.30466667 36.922,2.438 L36.922,18.1713333 C36.922,21.5646667 39.5486667,24.6146667 42.942,24.6146667 L57.0953333,24.6146667 C58.2286667,24.6146667 59.1453333,25.5346667 59.1453333,26.668 C59.1453333,27.798 58.2286667,28.718 57.0953333,28.718" id="Fill-4" fill="#5D5D5D"></path>
                        <path d="M25.0533333,68.563 L20.57,68.563 L17.6766667,63.093 C17.5666667,62.893 17.4533333,62.5163333 17.3366667,61.9696667 L17.29,61.9696667 C17.2333333,62.2263333 17.1066667,62.6196667 16.9033333,63.1396667 L14,68.563 L9.49,68.563 L14.8433333,60.1663333 L9.94666667,51.7696667 L14.55,51.7696667 L16.95,56.8063333 C17.1366667,57.203 17.3066667,57.6763333 17.4533333,58.223 L17.5,58.223 C17.5933333,57.893 17.77,57.4063333 18.0266667,56.7596667 L20.6966667,51.7696667 L24.9133333,51.7696667 L19.8766667,60.0963333 L25.0533333,68.563 Z" id="Fill-6" fill="#5D5D5D"></path>
                        <polygon id="Fill-8" fill="#5D5D5D" points="37.0576667 68.563 27.0576667 68.563 27.0576667 51.7696667 30.8376667 51.7696667 30.8376667 65.493 37.0576667 65.493"></polygon>
                        <path d="M38.5436667,67.9186667 L38.5436667,64.172 C39.2236667,64.742 39.9603333,65.1686667 40.757,65.4553333 C41.5536667,65.7386667 42.357,65.882 43.1703333,65.882 C43.647,65.882 44.0603333,65.8386667 44.417,65.752 C44.7703333,65.6686667 45.067,65.5453333 45.307,65.3953333 C45.5436667,65.242 45.7203333,65.062 45.8403333,64.8553333 C45.957,64.652 46.0136667,64.4253333 46.0136667,64.182 C46.0136667,63.8553333 45.9203333,63.562 45.7336667,63.3053333 C45.547,63.0453333 45.2903333,62.8086667 44.967,62.592 C44.6436667,62.372 44.257,62.162 43.8136667,61.9586667 C43.367,61.7553333 42.8903333,61.5486667 42.3736667,61.3386667 C41.0603333,60.792 40.0836667,60.122 39.4403333,59.3353333 C38.797,58.5453333 38.4736667,57.592 38.4736667,56.4786667 C38.4736667,55.602 38.6503333,54.852 39.0003333,54.222 C39.3536667,53.5953333 39.8303333,53.0786667 40.4336667,52.672 C41.0403333,52.2653333 41.7403333,51.9686667 42.537,51.7753333 C43.3336667,51.5853333 44.177,51.4886667 45.067,51.4886667 C45.9403333,51.4886667 46.717,51.542 47.3903333,51.6453333 C48.067,51.752 48.6903333,51.9153333 49.2603333,52.132 L49.2603333,55.6353333 C48.977,55.4386667 48.6703333,55.2686667 48.3403333,55.1186667 C48.007,54.972 47.667,54.8486667 47.3136667,54.7486667 C46.9636667,54.652 46.6136667,54.5786667 46.267,54.532 C45.9203333,54.4886667 45.5903333,54.4653333 45.277,54.4653333 C44.847,54.4653333 44.457,54.5053333 44.107,54.5853333 C43.7536667,54.6686667 43.457,54.7853333 43.217,54.932 C42.9736667,55.082 42.787,55.2586667 42.6536667,55.4653333 C42.5203333,55.672 42.4536667,55.9053333 42.4536667,56.162 C42.4536667,56.442 42.5303333,56.6953333 42.677,56.9153333 C42.827,57.1386667 43.037,57.352 43.3103333,57.5486667 C43.5836667,57.7486667 43.9136667,57.9453333 44.307,58.1353333 C44.697,58.3253333 45.137,58.522 45.6303333,58.7253333 C46.3003333,59.0086667 46.9036667,59.3053333 47.437,59.622 C47.9736667,59.9386667 48.4303333,60.2953333 48.8136667,60.692 C49.197,61.092 49.4903333,61.5453333 49.6936667,62.0586667 C49.897,62.5686667 49.997,63.1653333 49.997,63.8453333 C49.997,64.782 49.8203333,65.5653333 49.4636667,66.202 C49.1103333,66.8386667 48.627,67.3553333 48.017,67.7486667 C47.4103333,68.142 46.7003333,68.4286667 45.8903333,68.5986667 C45.0836667,68.7686667 44.2303333,68.8553333 43.3336667,68.8553333 C42.4103333,68.8553333 41.537,68.7786667 40.7036667,68.622 C39.8736667,68.4653333 39.1536667,68.232 38.5436667,67.9186667" id="Fill-10" fill="#5D5D5D"></path>
                        <path d="M36.281,41.0256667 L13.3343333,41.0256667 C12.4843333,41.0256667 11.7943333,40.3356667 11.7943333,39.4856667 C11.7943333,38.639 12.4843333,37.949 13.3343333,37.949 L36.281,37.949 C37.131,37.949 37.821,38.639 37.821,39.4856667 C37.821,40.3356667 37.131,41.0256667 36.281,41.0256667" id="Fill-12" fill="#5D5D5D"></path>
                        <path d="M25.1553333,33.8463333 L13.332,33.8463333 C12.4853333,33.8463333 11.7953333,33.1563333 11.7953333,32.3063333 C11.7953333,31.4596667 12.4853333,30.7696667 13.332,30.7696667 L25.1553333,30.7696667 C26.0053333,30.7696667 26.6953333,31.4596667 26.6953333,32.3063333 C26.6953333,33.1563333 26.0053333,33.8463333 25.1553333,33.8463333" id="Fill-14" fill="#5D5D5D"></path>
                    </g>
                </g>
            </g>
        </g>
    </g>
</svg>