<?xml version="1.0" encoding="utf-8"?>
<!-- Generator: Adobe Illustrator 19.1.0, SVG Export Plug-In . SVG Version: 6.00 Build 0)  -->
<svg version="1.2" baseProfile="tiny" id="Layer_1" xmlns="http://www.w3.org/2000/svg"
	 x="0px" y="0px" viewBox="0 0 80 80" xml:space="preserve">
<g>
	<path fill="#333333" d="M78.8,63.9L47.5,9.8c-2-3.4-4.5-5.1-7.1-5.1s-5.1,1.7-7.1,5.1L2.1,63.9c-3.9,6.8-0.7,12.3,7.1,12.3h62.5
		C79.5,76.1,82.7,70.6,78.8,63.9z M74.5,69.6c-0.1,0.1-0.9,0.6-2.8,0.6H9.2c-1.9,0-2.7-0.5-2.8-0.6c-0.1-0.1-0.1-1.1,0.8-2.7
		l31.2-54.1c0.9-1.6,1.8-2.1,1.9-2.1c0.2,0,1,0.5,1.9,2.1l31.2,54.1C74.6,68.5,74.5,69.4,74.5,69.6z"/>
	<circle fill="#333333" cx="40.4" cy="58.7" r="4.5"/>
	<rect x="36.4" y="32" fill="#333333" width="8.1" height="18.9"/>
</g>
</svg>
