<?xml version="1.0" encoding="utf-8"?>
<!-- Generator: Adobe Illustrator 19.1.0, SVG Export Plug-In . SVG Version: 6.00 Build 0)  -->
<svg version="1.2" baseProfile="tiny" id="Layer_1" xmlns="http://www.w3.org/2000/svg"
	 x="0px" y="0px" viewBox="0 0 80 80" xml:space="preserve">
<g>
	<line fill="none" stroke="#4D4D4D" stroke-width="7.4" stroke-miterlimit="10" x1="34.5" y1="15.9" x2="45.5" y2="15.9"/>
	<path fill="none" stroke="#4D4D4D" stroke-width="7.4" stroke-miterlimit="10" d="M60.3,15.9h6c4.8,0,9.6,3.9,9.6,8.7v41.8
		c0,4.8-4.8,8.7-9.6,8.7H11.8C7,75.2,4,71.3,4,66.5V24.6c0-4.8,3-8.7,7.8-8.7h7.9"/>
	<line fill="none" stroke="#4D4D4D" stroke-width="7.4" stroke-miterlimit="10" x1="4" y1="34.5" x2="76" y2="34.5"/>
	<g>
		
			<line fill="none" stroke="#4D4D4D" stroke-width="7.4" stroke-linecap="round" stroke-miterlimit="10" x1="27" y1="4.8" x2="27" y2="23.4"/>
		
			<line fill="none" stroke="#4D4D4D" stroke-width="7.4" stroke-linecap="round" stroke-miterlimit="10" x1="53" y1="4.8" x2="53" y2="23.4"/>
	</g>
	<g>
		<line fill="none" stroke="#4D4D4D" stroke-width="7.4" stroke-miterlimit="10" x1="15.9" y1="49.2" x2="27" y2="49.2"/>
		<line fill="none" stroke="#4D4D4D" stroke-width="7.4" stroke-miterlimit="10" x1="15.9" y1="60.3" x2="27" y2="60.3"/>
		<line fill="none" stroke="#4D4D4D" stroke-width="7.4" stroke-miterlimit="10" x1="34.5" y1="49.2" x2="45.5" y2="49.2"/>
		<line fill="none" stroke="#4D4D4D" stroke-width="7.4" stroke-miterlimit="10" x1="34.5" y1="60.3" x2="45.5" y2="60.3"/>
		<line fill="none" stroke="#4D4D4D" stroke-width="7.4" stroke-miterlimit="10" x1="53" y1="49.2" x2="64.1" y2="49.2"/>
		<line fill="none" stroke="#4D4D4D" stroke-width="7.4" stroke-miterlimit="10" x1="53" y1="60.3" x2="64.1" y2="60.3"/>
	</g>
</g>
</svg>
