<?xml version="1.0" encoding="utf-8"?>
<!-- Generator: Adobe Illustrator 19.1.0, SVG Export Plug-In . SVG Version: 6.00 Build 0)  -->
<svg version="1.2" baseProfile="tiny" id="Layer_1" xmlns="http://www.w3.org/2000/svg"
	 x="0px" y="0px" viewBox="0 0 80 80" xml:space="preserve">
<g>
	<g>
		<path fill="#333333" d="M4.1,70c-0.6,0-1.3-0.2-1.8-0.7c-1-1-1-2.6,0-3.5l27-27.4c1-1,2.6-1,3.5,0c1,1,1,2.6,0,3.5l-27,27.4
			C5.4,69.7,4.8,70,4.1,70z"/>
	</g>
	<g>
		<path fill="#333333" d="M31.4,71.8H8.3C3.7,71.8,0,68,0,63.4V16.6C0,12,3.7,8.2,8.3,8.2h55.8c4.6,0,8.3,3.8,8.3,8.4v11.7
			c0,1.4-1.1,2.5-2.5,2.5s-2.5-1.1-2.5-2.5V16.6c0-1.9-1.5-3.4-3.3-3.4H8.3c-1.8,0-3.3,1.5-3.3,3.4v46.8c0,1.9,1.5,3.4,3.3,3.4h23.1
			c1.4,0,2.5,1.1,2.5,2.5S32.8,71.8,31.4,71.8z"/>
	</g>
	<g>
		<path fill="#333333" d="M36.2,45.8c-1.9,0-3.7-0.8-5.1-2.1L2.4,14.5c-1-1-1-2.6,0-3.5c1-1,2.6-1,3.5,0l28.7,29.1
			c0.8,0.8,2.2,0.8,3,0L66.4,11c1-1,2.6-1,3.5,0c1,1,1,2.6,0,3.5L41.3,43.6C39.9,45,38.1,45.8,36.2,45.8z"/>
	</g>
	<g>
		<path fill="#333333" d="M52.9,70.2c-2.2,0-4.3-0.9-5.9-2.5l-7.8-7.9c-1-1-1-2.6,0-3.5c1-1,2.6-1,3.5,0l7.8,7.9
			c1.2,1.3,3.4,1.3,4.6,0l20.5-20.8c1-1,2.6-1,3.5,0c1,1,1,2.6,0,3.5L58.8,67.8C57.2,69.4,55.1,70.2,52.9,70.2z"/>
	</g>
</g>
</svg>
