<?xml version="1.0" encoding="utf-8"?>
<!-- Generator: Adobe Illustrator 19.1.0, SVG Export Plug-In . SVG Version: 6.00 Build 0)  -->
<svg version="1.2" baseProfile="tiny" id="Layer_1" xmlns="http://www.w3.org/2000/svg"
	 x="0px" y="0px" viewBox="0 0 80 80" xml:space="preserve">
<g>
	<g>
		<path fill="#333333" d="M67.5,79.9h-55C5.6,79.9,0,74.3,0,67.4V38.8c0-6.9,5.6-12.5,12.5-12.5c1.4,0,2.5,1.1,2.5,2.5
			s-1.1,2.5-2.5,2.5c-4.1,0-7.5,3.4-7.5,7.5v28.6c0,4.1,3.4,7.5,7.5,7.5h55c4.1,0,7.5-3.4,7.5-7.5V38.8c0-4.1-3.4-7.5-7.5-7.5
			c-1.4,0-2.5-1.1-2.5-2.5s1.1-2.5,2.5-2.5c6.9,0,12.5,5.6,12.5,12.5v28.6C80,74.3,74.4,79.9,67.5,79.9z"/>
	</g>
	<g>
		<path fill="#333333" d="M40,55.9c-0.6,0-1.3-0.2-1.8-0.7L18.7,35.7c-1-1-1-2.6,0-3.5c1-1,2.6-1,3.5,0L40,49.9l17.8-17.8
			c1-1,2.6-1,3.5,0c1,1,1,2.6,0,3.5L41.8,55.2C41.3,55.7,40.6,55.9,40,55.9z"/>
	</g>
	<g>
		<path fill="#333333" d="M40,50.9c-1.4,0-2.5-1.1-2.5-2.5V2.6c0-1.4,1.1-2.5,2.5-2.5s2.5,1.1,2.5,2.5v45.8
			C42.5,49.8,41.4,50.9,40,50.9z"/>
	</g>
	<g>
		<path fill="#333333" d="M65,65H15c-1.4,0-2.5-1.1-2.5-2.5S13.6,60,15,60h50c1.4,0,2.5,1.1,2.5,2.5S66.4,65,65,65z"/>
	</g>
</g>
</svg>
