<?xml version="1.0" encoding="utf-8"?>
<!-- Generator: Adobe Illustrator 19.1.0, SVG Export Plug-In . SVG Version: 6.00 Build 0)  -->
<svg version="1.1" baseProfile="tiny" id="Layer_1" xmlns="http://www.w3.org/2000/svg"
	 x="0px" y="0px" viewBox="0 0 80 80" xml:space="preserve">
<g>
	<path fill="#333333" d="M40,4c19.9,0,36,16.1,36,36S59.9,76,40,76S4,59.9,4,40S20.1,4,40,4 M40,0C17.9,0,0,17.9,0,40s17.9,40,40,40
		s40-17.9,40-40S62.1,0,40,0L40,0z"/>
</g>
<g>
	<path fill="#333333" d="M21.6,58.4L21.6,58.4c-1.8-1.8-1.8-4.6,0-6.4L52,21.6c1.8-1.8,4.6-1.8,6.4,0l0,0c1.8,1.8,1.8,4.6,0,6.4
		L28,58.4C26.2,60.1,23.4,60.1,21.6,58.4z"/>
	<path fill="#333333" d="M21.6,21.6L21.6,21.6c1.8-1.8,4.6-1.8,6.4,0L58.4,52c1.8,1.8,1.8,4.6,0,6.4l0,0c-1.8,1.8-4.6,1.8-6.4,0
		L21.6,28C19.9,26.2,19.9,23.4,21.6,21.6z"/>
</g>
</svg>
