<?xml version="1.0" encoding="utf-8"?>
<!-- Generator: Adobe Illustrator 19.1.0, SVG Export Plug-In . SVG Version: 6.00 Build 0)  -->
<svg  version="1.2" baseProfile="tiny" id="Layer_1" xmlns="http://www.w3.org/2000/svg"
	 x="0px" y="0px" viewBox="0 0 80 80" xml:space="preserve">
<g>
	<g>
		<path fill="#333333" d="M40,8.9c8.3,0,16.1,3.2,22,9.1s9.1,13.7,9.1,22S67.9,56.1,62,62c-5.9,5.9-13.7,9.1-22,9.1
			c-8.3,0-16.1-3.2-22-9.1c-5.9-5.9-9.1-13.7-9.1-22s3.2-16.1,9.1-22S31.7,8.9,40,8.9 M40,0C29.8,0,19.5,3.9,11.7,11.7
			c-15.6,15.6-15.6,40.9,0,56.6C19.5,76.1,29.8,80,40,80c10.2,0,20.5-3.9,28.3-11.7c15.6-15.6,15.6-40.9,0-56.6
			C60.5,3.9,50.2,0,40,0L40,0z"/>
	</g>
	<g>
		<g>
			<path fill="#333333" d="M36.9,60.9c-0.8-0.8-1.3-1.9-1.3-3.1V22.2c0-2.5,2-4.4,4.4-4.4c2.5,0,4.4,2,4.4,4.4v35.6
				c0,2.5-2,4.4-4.4,4.4C38.8,62.2,37.7,61.7,36.9,60.9z"/>
		</g>
		<g>
			<path fill="#333333" d="M19.1,43.1c-0.8-0.8-1.3-1.9-1.3-3.1c0-2.5,2-4.4,4.4-4.4h35.6c2.5,0,4.4,2,4.4,4.4c0,2.5-2,4.4-4.4,4.4
				H22.2C21,44.4,19.9,43.9,19.1,43.1z"/>
		</g>
	</g>
</g>
</svg>
