<?xml version="1.0" encoding="utf-8"?>
<!-- Generator: Adobe Illustrator 19.1.0, SVG Export Plug-In . SVG Version: 6.00 Build 0)  -->
<svg version="1.2" baseProfile="tiny" id="Layer_1" xmlns="http://www.w3.org/2000/svg"
	 x="0px" y="0px" viewBox="0 0 80 80" xml:space="preserve">
<g>
	<g>
		<path fill="#333333" d="M40,4c19.9,0,36,16.1,36,36S59.9,76,40,76S4,59.9,4,40S20.1,4,40,4 M40,0C17.9,0,0,17.9,0,40
			s17.9,40,40,40s40-17.9,40-40S62.1,0,40,0L40,0z"/>
	</g>
	<g>
		<g>
			<path fill="#333333" d="M58,26.9H21c-1.4,0-2.5-1.1-2.5-2.5s1.1-2.5,2.5-2.5h37c1.4,0,2.5,1.1,2.5,2.5S59.4,26.9,58,26.9z"/>
		</g>
		<g>
			<path fill="#333333" d="M48.5,24.4c-1.4,0-2.5-1.1-2.5-2.5v-4H33l0,4c0,1.4-1.1,2.5-2.5,2.5S28,23.3,28,21.9v-4.2
				c0-2.3,1.8-4.8,4.6-4.8h13.8c2.7,0,4.6,2.5,4.6,4.8v4.2C51,23.3,49.9,24.4,48.5,24.4z"/>
		</g>
	</g>
	<g>
		<path fill="#333333" d="M55.5,63.9h-32c-1.4,0-2.5-1.1-2.5-2.5V31.6c0-1.4,1.1-2.5,2.5-2.5h32c1.4,0,2.5,1.1,2.5,2.5v29.8
			C58,62.8,56.9,63.9,55.5,63.9z M26,58.9h27V34.1H26V58.9z"/>
	</g>
	<g>
		<g>
			<g>
				<path fill="#333333" d="M44.5,57.4c-1.4,0-2.5-1.1-2.5-2.5v-16c0-1.4,1.1-2.5,2.5-2.5s2.5,1.1,2.5,2.5v16
					C47,56.3,45.9,57.4,44.5,57.4z"/>
			</g>
		</g>
		<g>
			<g>
				<path fill="#333333" d="M34.5,57.4c-1.4,0-2.5-1.1-2.5-2.5v-16c0-1.4,1.1-2.5,2.5-2.5s2.5,1.1,2.5,2.5v16
					C37,56.3,35.9,57.4,34.5,57.4z"/>
			</g>
		</g>
	</g>
</g>
</svg>
