<?xml version="1.0" encoding="utf-8"?>
<!-- Generator: Adobe Illustrator 20.1.0, SVG Export Plug-In . SVG Version: 6.00 Build 0)  -->
<svg version="1.1" id="Layer_1" xmlns="http://www.w3.org/2000/svg" xmlns:xlink="http://www.w3.org/1999/xlink" x="0px" y="0px"
	 viewBox="0 0 80 80" style="enable-background:new 0 0 80 80;" xml:space="preserve">
<style type="text/css">
	.st0{fill:#333333;}
</style>
<g>
	<path class="st0" d="M40,4c19.9,0,36,16.1,36,36S59.9,76,40,76S4,59.9,4,40S20.1,4,40,4 M40,0C17.9,0,0,17.9,0,40s17.9,40,40,40
		s40-17.9,40-40S62.1,0,40,0L40,0z"/>
</g>
<g id="Page-1">
	<g id="MC-Sent" transform="translate(-713.000000, -461.000000)">
		<g id="Card-Read" transform="translate(198.000000, 429.000000)">
			<g id="billing" transform="translate(506.000000, 25.000000)">
				<g id="contents" transform="translate(9.000000, 7.000000)">
					<g id="Mask">
						<path id="path-1_1_" class="st0" d="M40.4,56h-9.5c-0.8,0-1.5-0.7-1.5-1.5c0-0.8,0.7-1.5,1.5-1.5h9.5c0.8,0,1.5,0.7,1.5,1.5
							C41.8,55.3,41.2,56,40.4,56z M48.4,50.1H30.9c-0.8,0-1.5-0.7-1.5-1.5s0.7-1.5,1.5-1.5h17.5c0.8,0,1.5,0.7,1.5,1.5
							S49.2,50.1,48.4,50.1z M48.4,44.1H30.9c-0.8,0-1.5-0.7-1.5-1.5s0.7-1.5,1.5-1.5h17.5c0.8,0,1.5,0.7,1.5,1.5
							S49.2,44.1,48.4,44.1z M26.4,62.7c-1.6,0-2.7-1-2.7-2.7V20.3c0-1.6,1.1-3,2.7-3h14v10c0,4.1,3.1,7.1,7.1,7.1h8.9v25.7
							c0,1.6-1.3,2.7-2.9,2.7H26.4z M43.3,19.2l11.3,12.2h-7.1c-2.4,0-4.2-1.7-4.2-4.1V19.2z M42.5,14.3H26.4c-3.2,0-5.7,2.7-5.7,6
							v39.8c0,3.3,2.4,5.6,5.7,5.6h27.1c3.2,0,5.8-2.3,5.8-5.6V32.5L42.5,14.3z"/>
					</g>
				</g>
			</g>
		</g>
	</g>
</g>
</svg>
