<?xml version="1.0" encoding="utf-8"?>
<!-- Generator: Adobe Illustrator 18.1.1, SVG Export Plug-In . SVG Version: 6.00 Build 0)  -->
<!DOCTYPE svg PUBLIC "-//W3C//DTD SVG 1.1//EN" "http://www.w3.org/Graphics/SVG/1.1/DTD/svg11.dtd">
<svg version="1.1" id="Layer_1"
	 xmlns="http://www.w3.org/2000/svg" x="0px" y="0px" viewBox="0 0 80 80"
	 enable-background="new 0 0 80 80" xml:space="preserve">
<switch>
	
	<g>
		<g>
			<path fill="#333333" d="M40,0C17.9,0,0,17.9,0,40c0,22.1,17.9,40,40,40s40-17.9,40-40C80,17.9,62.1,0,40,0z M40,76
				C20.1,76,4,59.8,4,40C4,20.1,20.1,4,40,4s36,16.1,36,36C76,59.8,59.9,76,40,76z"/>
			<path fill="#333333" d="M52.8,25.2l-20,20l-5.6-5.6c-1.8-1.8-4.6-1.8-6.4,0c-1.8,1.8-1.8,4.6,0,6.4l8.8,8.8
				c0.9,0.9,2,1.3,3.2,1.3s2.3-0.4,3.2-1.3l23.2-23.2c1.8-1.8,1.8-4.6,0-6.4C57.4,23.4,54.6,23.4,52.8,25.2z"/>
		</g>
	</g>
</switch>

</svg>
