<?xml version="1.0" encoding="utf-8"?>
<!-- Generator: Adobe Illustrator 19.1.0, SVG Export Plug-In . SVG Version: 6.00 Build 0)  -->
<svg version="1.2" baseProfile="tiny" id="Layer_1" xmlns="http://www.w3.org/2000/svg"
	 x="0px" y="0px" viewBox="0 0 80 80" xml:space="preserve">
<g>
	<g>
		<g>
			<path fill="#333333" d="M73.8,10.2c1.1,0,2.1,0.9,2.1,2.1v56.5c0,1.1-0.9,2.1-2.1,2.1H6.2c-1.1,0-2.1-0.9-2.1-2.1V12.2

				c0-1.1,0.9-2.1,2.1-2.1H73.8 M73.8,6.1H6.2C2.8,6.1,0,8.8,0,12.2v56.5c0,3.4,2.8,6.2,6.2,6.2h67.7c3.4,0,6.2-2.8,6.2-6.2V12.2
				C80,8.8,77.2,6.1,73.8,6.1L73.8,6.1z"/>
		</g>
	</g>
	<g>

		<path fill="#333333" d="M40,51.5c-1.9,0-3.7-0.7-5.1-2.1l-34-37.1l3-2.8l33.9,37c1.2,1.2,3.2,1.2,4.4-0.1L76.1,9.5l3,2.8l-33.9,37

			C43.7,50.8,41.9,51.5,40,51.5z"/>
	</g>
	<g>
		

			<rect x="42.5" y="55.1" transform="matrix(0.7071 0.7071 -0.7071 0.7071 58.7793 -27.5579)" fill="#333333" width="40.4" height="4.1"/>
	</g>
	<g>
		
			<rect x="15.3" y="37" transform="matrix(0.7071 0.7071 -0.7071 0.7071 45.5079 4.4804)" fill="#333333" width="4.1" height="40.4"/>

	</g>
</g>
</svg>
