<?xml version="1.0" encoding="utf-8"?>
<!-- Generator: Adobe Illustrator 21.1.0, SVG Export Plug-In . SVG Version: 6.00 Build 0)  -->
<svg version="1.1" id="Layer_1" xmlns="http://www.w3.org/2000/svg" xmlns:xlink="http://www.w3.org/1999/xlink" x="0px" y="0px"
	 viewBox="0 0 200 200" style="enable-background:new 0 0 200 200;" xml:space="preserve">
<style type="text/css">
	.st0{clip-path:url(#SVGID_2_);enable-background:new    ;}
	.st1{clip-path:url(#SVGID_4_);}
	.st2{clip-path:url(#SVGID_6_);fill:#424242;}
</style>
<g>
	<defs>
		<path id="SVGID_1_" d="M195.8,154.3L117.7,19.1c-4.9-8.5-11.3-12.6-17.7-12.6c-6.4,0-12.9,4.3-17.7,12.7l-78.1,135
			c-9.8,16.9-1.8,30.5,17.7,30.5h156.2C197.6,184.8,205.6,171.2,195.8,154.3z M185.1,168.5c-0.2,0.3-2.2,1.3-7,1.3H21.9
			c-4.7,0-6.7-1-7-1.3c-0.2-0.4-0.3-2.6,2.1-6.7L95.2,26.6c2.4-4.1,4.5-5.1,4.8-5.2c0.4,0,2.5,1.1,4.9,5.3l78.1,135.1
			C185.3,165.9,185.2,168.1,185.1,168.5z M111.1,141.6c0,6.2-5,11.1-11.1,11.1c-6.1,0-11.1-5-11.1-11.1c0-6.2,5-11.1,11.1-11.1
			C106.2,130.5,111.1,135.5,111.1,141.6z M89.7,122.3h20V74.8h-20V122.3z"/>
	</defs>
	<clipPath id="SVGID_2_">
		<use xlink:href="#SVGID_1_"  style="overflow:visible;"/>
	</clipPath>
	<g class="st0">
		<g>
			<defs>
				<rect id="SVGID_3_" x="-12.5" y="-6" width="225" height="205"/>
			</defs>
			<clipPath id="SVGID_4_">
				<use xlink:href="#SVGID_3_"  style="overflow:visible;"/>
			</clipPath>
			<g class="st1">
				<defs>
					<rect id="SVGID_5_" x="0" y="6.5" width="200" height="177.5"/>
				</defs>
				<clipPath id="SVGID_6_">
					<use xlink:href="#SVGID_5_"  style="overflow:visible;"/>
				</clipPath>
				<rect x="-12.5" y="-6" class="st2" width="225" height="203.2"/>
			</g>
		</g>
	</g>
</g>
</svg>
