<?xml version="1.0" encoding="UTF-8" standalone="no"?>
<svg width="80px" height="80px" viewBox="0 0 80 80" version="1.1" xmlns="http://www.w3.org/2000/svg" xmlns:xlink="http://www.w3.org/1999/xlink">
    <!-- Generator: sketchtool 45 (43471) - http://www.bohemiancoding.com/sketch -->
    <title>ICON Received</title>
    <desc>Created with sketchtool.</desc>
    <defs>
        <path d="M54.3,56.558025 L26.25,56.558025 C25.33865,56.558025 24.6,57.8114916 24.6,59.358025 C24.6,60.9045583 25.33865,62.1580249 26.25,62.1580249 L54.3,62.1580249 C55.21135,62.1580249 55.95,60.9045583 55.95,59.358025 C55.95,57.8114916 55.21135,56.558025 54.3,56.558025 L54.3,56.558025 Z M25.9245618,40.1022584 C25.2797452,39.4583396 25.2835965,38.4135525 25.9284131,37.7696336 C26.5726796,37.1251649 27.6257333,37.1251649 28.2699998,37.7696336 L38.6596902,48.1383213 L38.6596902,21.2999389 C38.6596902,20.3882247 39.3985884,19.650275 40.3102447,19.650275 C41.221901,19.650275 41.9607992,20.3882247 41.9607992,21.2999389 L41.9607992,48.1383213 L52.3202294,37.7696336 C52.9644959,37.1251649 53.9949921,37.1251649 54.6392585,37.7696336 C55.2840752,38.4135525 55.2840752,39.4583396 54.6392585,40.1022584 L41.4469266,53.2869224 C41.1250684,53.6091568 40.7025265,53.7702739 40.2799845,53.7702739 C39.8574426,53.7702739 39.4349006,53.6091568 39.1130425,53.2869224 L25.9245618,40.1022584 Z" id="path-icon-received"></path>
    </defs>
    <g id="TranZform-Icon-Library" stroke="none" stroke-width="1" fill="none" fill-rule="evenodd">
        <g id="TZF-Provider-Icon-Library-03" transform="translate(-83.000000, -158.000000)">
            <g id="37-Received" transform="translate(33.000000, 130.000000)">
                <g id="ICON-Received" transform="translate(50.000000, 28.000000)">
                    <g id="Received">
                        <path d="M40,76 C20.1488608,76 4,59.8501266 4,40 C4,20.1488608 20.1488608,4 40,4 C59.8501266,4 76,20.1488608 76,40 C76,59.8501266 59.8501266,76 40,76 M0,40 C0,62.0911392 17.9078481,80 40,80 C62.0911392,80 80,62.0911392 80,40 C80,17.9078481 62.0911392,0 40,0 C17.9078481,0 0,17.9078481 0,40 Z" id="Fill-1" fill="#5D5D5D"></path>
                        <mask id="mask-2" fill="white">
                            <use xlink:href="#path-icon-received"></use>
                        </mask>
                        <use id="Mask" fill="#5D5D5D" xlink:href="#path-icon-received"></use>
                        <path d="M24.7810833,39.2189167 L38.1144167,52.55225 C39.15575,53.5936667 40.84425,53.5936667 41.8856667,52.55225 L55.219,39.2189167 C56.26025,38.1775 56.26025,36.4890833 55.219,35.4476667 C54.1775833,34.40625 52.4890833,34.40625 51.4476667,35.4476667 L42.6666667,44.22875 L42.6666667,18.6666667 C42.6666667,17.1939167 41.47275,16 40,16 C38.52725,16 37.3333333,17.1939167 37.3333333,18.6666667 L37.3333333,44.22875 L28.55225,35.4476667 C28.0315833,34.927 27.3490833,34.6666667 26.6666667,34.6666667 C25.98425,34.6666667 25.30175,34.927 24.7810833,35.4476667 C23.7396667,36.4890833 23.7396667,38.1775 24.7810833,39.2189167 Z" id="Shape" fill="#5D5D5D" fill-rule="nonzero"></path>
                    </g>
                </g>
            </g>
        </g>
    </g>
</svg>