<?xml version="1.0" encoding="utf-8"?>
<!-- Generator: Adobe Illustrator 19.1.0, SVG Export Plug-In . SVG Version: 6.00 Build 0)  -->
<svg version="1.2" baseProfile="tiny" id="Layer_1" xmlns="http://www.w3.org/2000/svg"
	 x="0px" y="0px" viewBox="0 0 80 80" xml:space="preserve">
<g>
	<g>
		<g>
			<path fill="#333333" d="M45,35H21c-1.4,0-2.5-1.1-2.5-2.5S19.6,30,21,30h24c1.4,0,2.5,1.1,2.5,2.5S46.4,35,45,35z"/>
		</g>
		<g>
			<path fill="#333333" d="M45,45H21c-1.4,0-2.5-1.1-2.5-2.5S19.6,40,21,40h24c1.4,0,2.5,1.1,2.5,2.5S46.4,45,45,45z"/>
		</g>
		<g>
			<path fill="#333333" d="M33,55H21c-1.4,0-2.5-1.1-2.5-2.5S19.6,50,21,50h12c1.4,0,2.5,1.1,2.5,2.5S34.4,55,33,55z"/>
		</g>
	</g>
	<g>
		<path fill="#333333" d="M30.9,75.9H13.9c-4.1,0-7.5-3.4-7.5-7.5v-60c0-4.1,3.4-7.5,7.5-7.5h25.1c0.7,0,1.3,0.3,1.8,0.7l19.9,20
			c0.5,0.5,0.7,1.1,0.7,1.8v12.9c0,1.4-1.1,2.5-2.5,2.5s-2.5-1.1-2.5-2.5V24.4L37.9,5.9h-24c-1.4,0-2.5,1.1-2.5,2.5v60
			c0,1.4,1.1,2.5,2.5,2.5h17.1c1.4,0,2.5,1.1,2.5,2.5S32.3,75.9,30.9,75.9z"/>
	</g>
	<g>
		<path fill="#333333" d="M58.9,25.7H43.9c-4.1,0-7.5-3.4-7.5-7.5V3.4c0-1.4,1.1-2.5,2.5-2.5s2.5,1.1,2.5,2.5v14.8
			c0,1.4,1.1,2.5,2.5,2.5h14.9c1.4,0,2.5,1.1,2.5,2.5S60.2,25.7,58.9,25.7z"/>
	</g>
	<g>
		<g>
			<path fill="#333333" d="M48,75.5c-0.9,0-1.8-0.3-2.5-1l-5.7-5.7c-1.4-1.4-1.4-3.6,0-5l17-17c1-1,2.6-1,3.5,0l7.1,7.1
				c1,1,1,2.6,0,3.5l-17,17C49.8,75.2,48.9,75.5,48,75.5z M44.5,66.4l3.5,3.5l14.1-14.1l-3.5-3.5L44.5,66.4z"/>
		</g>
		<g>
			<path fill="#333333" d="M72.8,48c1.2,1.2,1.2,3.1,0,4.2l-1.4,1.4L60.7,43l1.4-1.4c1.2-1.2,3.1-1.2,4.2,0L72.8,48z"/>
		</g>
		<g>
			<polygon fill="#333333" points="45.2,78.4 36,79.1 36.7,69.9 			"/>
		</g>
	</g>
</g>
</svg>
