<?xml version="1.0" encoding="UTF-8" standalone="no"?>
<svg width="28px" height="27px" viewBox="0 0 28 27" version="1.1" xmlns="http://www.w3.org/2000/svg" xmlns:xlink="http://www.w3.org/1999/xlink">
    <path fill="#5A6F7F" d="M22.0109693,20.9633036 L20.8466353,22.0923878 C20.8652834,22.3435027 20.8747614,22.5972448 20.8747614,22.8532358 L20.8747614,26.3533458 L0.342242863,26.3533458 L0.342242863,22.8532358 C0.342242863,18.3692759 3.78212414,14.5745243 7.94406565,13.5037535 C8.68392073,13.0445095 8.77049952,12.5332498 8.77049952,12.5332498 C8.77049952,12.217049 7.66311235,11.426547 7.66311235,11.426547 L7.77877887,11.4292847 C6.17929568,10.3153955 5.12905735,8.46404679 5.12905735,6.36733444 C5.12905735,2.96201624 7.88349472,0.201761327 11.2888129,0.201761327 C14.6937889,0.201761327 17.4424087,2.96201624 17.4424087,6.36733444 C17.4424087,8.63378228 16.194716,10.6131171 14.3727972,11.6845723 C14.0808932,11.9528639 13.6035122,12.3847312 13.6035122,12.6112733 C13.6035122,12.6112733 13.3252966,13.0540913 13.7575061,13.4924606 C15.6577326,13.970546 17.2992279,15.0157252 18.5253915,16.4356237 C18.7981674,16.3597672 19.0795604,16.2912948 19.3698305,16.2308826 L19.3898365,15.8151089 C18.7167247,15.1143233 17.9394542,14.5146402 17.0776684,14.0425365 C17.1338807,14.02673 17.1902993,14.0115415 17.2469147,13.9969788 C17.8430422,13.626709 17.8040304,13.215032 17.8040304,13.215032 C17.8040304,12.9604288 16.9129191,12.3235785 16.9129191,12.3235785 L17.0077109,12.3256318 C16.6966233,12.1089284 16.4115045,11.8575932 16.1579563,11.577199 C17.7907346,10.3507851 18.7498266,8.41381085 18.7498266,6.36747132 C18.7498266,5.37330706 18.5261656,4.43046793 18.126611,3.58682322 C18.6623519,3.3892775 19.2414486,3.28139956 19.8456471,3.28139956 C22.5887916,3.28139956 24.8165699,5.50507132 24.8165699,8.2482158 C24.8165699,10.0738989 23.8395642,11.668249 22.3718313,12.5316414 C22.136734,12.747575 21.8082137,13.0956012 21.8082137,13.2779984 C21.8082137,13.2779984 21.6956271,13.6345798 22.0436533,13.9877392 C25.4161194,14.8360744 28.0001369,17.9022638 28.0001369,21.5283066 L28.0001369,23.957988 L22.1825215,23.957988 L22.1825215,23.957988 L22.1825215,22.8530305 C22.1825215,22.2088171 22.1238133,21.5768538 22.0109693,20.9633036 Z M10.3233055,25.4693524 C15.5703906,20.5357304 19.7056398,20.0224175 19.7056398,20.0224175 L19.6768943,22.9883398 L24.3822631,18.4256719 L19.6768943,13.4064978 L19.5345355,16.3724201 C11.6065879,17.9407623 10.3233055,25.4693524 10.3233055,25.4693524 Z"></path>
</svg>
