<?xml version="1.0" encoding="UTF-8" standalone="no"?>
<svg width="28px" height="29px" viewBox="0 0 28 29" version="1.1" xmlns="http://www.w3.org/2000/svg" xmlns:xlink="http://www.w3.org/1999/xlink">
    <!-- Generator: sketchtool 43.1 (39012) - http://www.bohemiancoding.com/sketch -->
    <title>A042C0BC-1FAF-49BE-82B6-C8C9C593CCD7</title>
    <desc>Created with sketchtool.</desc>
    <defs>
        <path d="M2.90909091,23.7727273 L11.4581818,23.7727273 C11.6192727,24.2785455 11.824,24.7643636 12.0669091,25.2272727 L2.18181818,25.2272727 C0.981818182,25.2272727 0,24.2454545 0,23.0454545 L0,2.68181818 C0,1.48181818 0.981818182,0.5 2.18181818,0.5 L18.1818182,0.5 C19.3818182,0.5 20.3636364,1.48181818 20.3636364,2.68181818 L20.3636364,11.9250909 C20.2825455,11.9229091 20.2018182,11.9189091 20.12,11.9189091 C19.7090909,11.9189091 19.3054545,11.9487273 18.9090909,12.0014545 L18.9090909,4.13636364 C18.9090909,3.33636364 18.2545455,2.68181818 17.4545455,2.68181818 L2.90909091,2.68181818 C2.10909091,2.68181818 1.45454545,3.33636364 1.45454545,4.13636364 L1.45454545,22.3181818 C1.45454545,23.1181818 2.10909091,23.7727273 2.90909091,23.7727273 Z M3.91093117,7.14335664 L15.4736842,7.14335664 C15.8491336,7.14335664 16.1538462,7.46917483 16.1538462,7.87062937 C16.1538462,8.27208392 15.8491336,8.5979021 15.4736842,8.5979021 L3.91093117,8.5979021 C3.53548178,8.5979021 3.23076923,8.27208392 3.23076923,7.87062937 C3.23076923,7.46917483 3.53548178,7.14335664 3.91093117,7.14335664 Z M13.048951,12.1783217 C13.048951,12.5797762 12.7231329,12.9055944 12.3216783,12.9055944 L3.95804196,12.9055944 C3.55658741,12.9055944 3.23076923,12.5797762 3.23076923,12.1783217 C3.23076923,11.7768671 3.55658741,11.451049 3.95804196,11.451049 L12.3216783,11.451049 C12.7231329,11.451049 13.048951,11.7768671 13.048951,12.1783217 Z M9.09090909,17.9545455 L4,17.9545455 C3.59854545,17.9545455 3.27272727,17.6287273 3.27272727,17.2272727 C3.27272727,16.8258182 3.59854545,16.5 4,16.5 L9.09090909,16.5 C9.49236364,16.5 9.81818182,16.8258182 9.81818182,17.2272727 C9.81818182,17.6287273 9.49236364,17.9545455 9.09090909,17.9545455 Z M20.12,13.3733091 C24.3374545,13.3733091 27.7563636,16.7922182 27.7563636,21.0096727 C27.7563636,25.2271273 24.3374545,28.6460364 20.12,28.6460364 C15.9025455,28.6460364 12.4836364,25.2271273 12.4836364,21.0096727 C12.4836364,16.7922182 15.9025455,13.3733091 20.12,13.3733091 Z M22.4810341,24.1650308 C22.9058037,23.7315493 23.1080404,23.1950554 23.1080404,22.5558949 C23.1080404,22.2057221 23.0518635,21.8970308 22.959806,21.6298209 C22.8677484,21.3629567 22.7177018,21.1195987 22.5111159,20.9011295 C22.3038051,20.681969 22.02727,20.4783641 21.6822353,20.289969 C21.3368382,20.1019196 20.9153305,19.9111048 20.418437,19.7185616 C20.0128763,19.5612777 19.681614,19.4164382 19.4239253,19.2850801 C19.1658741,19.1537221 18.9654495,19.0247838 18.8226516,18.897574 C18.6798536,18.7710554 18.5812723,18.6372777 18.5258203,18.4972777 C18.4707307,18.356932 18.4431859,18.1993024 18.4431859,18.0240431 C18.4431859,17.7177715 18.5674999,17.4526357 18.8157654,17.2296727 C19.063306,17.0060184 19.4492955,16.8943641 19.9730088,16.8943641 C20.3952414,16.8943641 20.7565855,16.9690308 21.0555914,17.1176727 C21.35351,17.2666604 21.6659259,17.498611 21.9874025,17.8138703 L22.9152269,16.9600431 C22.5937503,16.6624135 22.2733609,16.4194011 21.9337627,16.2310061 C21.5941645,16.0429567 21.0769749,15.9181666 20.7145435,15.8566357 L20.7145435,14.6816727 L19.2648179,14.6816727 L19.2648179,15.8697715 C18.5399551,15.9752036 18.0825667,16.2223641 17.6831673,16.6119443 C17.2837679,17.0015246 17.1344461,17.5034505 17.1344461,18.1159937 C17.1344461,18.4488826 17.1804749,18.74029 17.2721701,18.9895246 C17.3638652,19.2391048 17.5131869,19.4689814 17.7197728,19.6791542 C17.9267212,19.889327 18.1974574,20.08429 18.532344,20.2636974 C18.8672306,20.4431048 19.2782278,20.624932 19.7649732,20.8088332 C20.1506002,20.9664629 20.4720769,21.1133764 20.7290407,21.2488826 C20.9860046,21.3847345 21.1904159,21.5205863 21.3419122,21.6560925 C21.4934085,21.7919443 21.6010507,21.9388579 21.665201,22.0964875 C21.7293514,22.2537715 21.7612453,22.4293764 21.7612453,22.621574 C21.7612453,23.0419196 21.6090241,23.3658209 21.3060315,23.593969 C21.0030389,23.8214258 20.5876925,23.9351542 20.064704,23.9351542 C19.642109,23.9351542 19.2434344,23.8390554 18.8762914,23.6461666 C18.5091484,23.4536233 18.1532408,23.1732777 17.8227033,22.8054752 L16.8858182,23.6198949 C17.1884484,23.9790554 17.5131869,24.274611 17.9172979,24.5065616 C18.3210465,24.7388579 18.9023865,24.8940678 19.2648179,24.9728826 L19.2648179,26.0890801 L20.7145435,26.0890801 L20.7145435,24.9597468 C21.4394063,24.863648 22.0562645,24.5985122 22.4810341,24.1650308 Z" id="#path-claimstatusinquiry"></path>
    </defs>
    <g id="Symbols" stroke="none" stroke-width="1" fill="none" fill-rule="evenodd">
        <g id="Icon_Claim-Status-Inquiry" transform="translate(-23.000000, -15.000000)">
            <g id="Mask-Grey" transform="translate(23.000000, 15.000000)">
                <mask id="mask-2" fill="white">
                    <use xlink:href="##path-claimstatusinquiry"></use>
                </mask>
                <use id="Claim-Status-Inquiry" fill="#5A6F7F" xlink:href="##path-claimstatusinquiry"></use>
            </g>
        </g>
    </g>
</svg>