<?xml version="1.0" encoding="UTF-8" standalone="no"?>
<svg width="24px" height="20px" viewBox="0 0 24 20" version="1.1" xmlns="http://www.w3.org/2000/svg" xmlns:xlink="http://www.w3.org/1999/xlink">
    <!-- Generator: sketchtool 43.1 (39012) - http://www.bohemiancoding.com/sketch -->
    <title>C80524BB-1294-49A8-BE7C-4B0E367FEF3E</title>
    <desc>Created with sketchtool.</desc>
    <defs>
        <path d="M20.625,15.03125 L22.0625,15.03125 L22.0625,13.59375 L20.625,13.59375 L20.625,15.03125 Z M3.375,9.28125 L4.8125,9.28125 L4.8125,7.84375 L3.375,7.84375 L3.375,9.28125 Z M1.9375,15.03125 L3.375,15.03125 L3.375,13.59375 L1.9375,13.59375 L1.9375,15.03125 Z M7.6875,4.96875 L9.125,4.96875 L9.125,3.53125 L7.6875,3.53125 L7.6875,4.96875 Z M14.875,4.96875 L16.3125,4.96875 L16.3125,3.53125 L14.875,3.53125 L14.875,4.96875 Z M20.625,7.84375 L20.625,9.28125 L14.73125,14.3125 C14.73125,14.45625 14.875,14.74375 14.875,15.03125 C14.875,16.6125 13.58125,17.90625 12,17.90625 C10.41875,17.90625 9.125,16.6125 9.125,15.03125 C9.125,13.45 10.41875,12.15625 12,12.15625 C12.43125,12.15625 12.8625,12.3 13.15,12.44375 L19.1875,7.84375 L20.625,7.84375 Z M23.5,12.3 C23.5,5.975 18.325,0.65625 12,0.65625 C5.675,0.65625 0.5,5.975 0.5,12.3 C0.5,14.3125 0.93125,16.46875 1.79375,17.90625 L8.8375,17.90625 C9.55625,18.76875 10.70625,19.34375 12,19.34375 C13.29375,19.34375 14.44375,18.76875 15.1625,17.90625 L22.20625,17.90625 C23.06875,16.46875 23.5,14.3125 23.5,12.3 L23.5,12.3 Z" id="path-dash"></path>
    </defs>
    <g id="Symbols" stroke="none" stroke-width="1" fill="none" fill-rule="evenodd">
        <g id="Icon_Dashboard" transform="translate(-23.000000, -20.000000)">
            <g id="Mask-Grey" transform="translate(23.000000, 20.000000)">
                <mask id="mask-2" fill="white">
                    <use xlink:href="#path-dash"></use>
                </mask>
                <use id="Dashboard" fill="#5A6F7F" xlink:href="#path-dash"></use>
            </g>
        </g>
    </g>
</svg>
