<?xml version="1.0" encoding="UTF-8" standalone="no"?>
<svg width="22px" height="18px" viewBox="0 0 22 18" version="1.1" xmlns="http://www.w3.org/2000/svg" xmlns:xlink="http://www.w3.org/1999/xlink">
    <!-- Generator: sketchtool 43.2 (39069) - http://www.bohemiancoding.com/sketch -->
    <title>235373D0-EE17-4E92-9896-A1087F36A826</title>
    <desc>Created with sketchtool.</desc>
    <defs>
        <path d="M2.11002344,5.41945294 C1.60303516,5.07600372 1.12444922,4.60364825 0.674738281,4.00251544 C0.224984375,3.4014256 0,2.84308966 0,2.32785138 C0,1.68998028 0.169683594,1.15837091 0.509050781,0.73306622 C0.848460937,0.30784747 1.3330625,0.0952380952 1.96276953,0.0952380952 L20.0210312,0.0952380952 C20.5524687,0.0952380952 21.0125781,0.287351376 21.4010586,0.671792783 C21.789582,1.05614825 21.9839297,1.51827716 21.9839297,2.05813653 C21.9839297,2.70417169 21.7836523,3.3216756 21.382668,3.9103045 C20.9819844,4.49919122 20.4832031,5.00226935 19.8861953,5.41919513 C16.8111797,7.55388263 14.8972227,8.88294903 14.1449258,9.40626544 C14.0631562,9.46362872 13.8892187,9.58815216 13.6235,9.78052325 C13.3576094,9.97285138 13.1369219,10.1282693 12.9610508,10.2468201 C12.7851797,10.365285 12.5725703,10.4981014 12.3231797,10.6454412 C12.073918,10.7923514 11.8385352,10.9030818 11.6178047,10.9763006 C11.3969453,11.0500779 11.1924141,11.0866873 11.0043398,11.0866873 L10.9919648,11.0866873 L10.9796328,11.0866873 C10.7915586,11.0866873 10.5871133,11.0501209 10.3662539,10.9763006 C10.1454375,10.9030818 9.91026953,10.7924803 9.66079297,10.6454412 C9.41123047,10.4982733 9.19862109,10.3653279 9.02275,10.2468201 C8.84700781,10.1282693 8.62614844,9.97285138 8.36034375,9.78052325 C8.09458203,9.58832403 7.92085937,9.46362872 7.83908984,9.40626544 C7.09482812,8.88294903 6.02344531,8.13675372 4.62489844,7.16763653 C3.22639453,6.19851935 2.38811719,5.61569122 2.11002344,5.41945294 Z M20.757,6.73197638 C21.2234258,6.41310528 21.6322305,6.05710919 21.9839727,5.66471856 L21.9839727,15.4050897 C21.9839727,15.9452498 21.7919453,16.406949 21.407418,16.7914764 C21.0230195,17.1760037 20.5608906,17.3682029 20.0212031,17.3682029 L1.96289844,17.3682029 C1.42308203,17.3682029 0.960910156,17.1760037 0.576554688,16.7914764 C0.192113281,16.4070779 0,15.9452068 0,15.4050897 L0,5.66471856 C0.359863281,6.06540216 0.772878906,6.42139825 1.23917578,6.73197638 C4.19976563,8.74381622 6.23210156,10.154824 7.33626953,10.9644412 C7.80239453,11.3078045 8.18069141,11.5758436 8.47094531,11.7679139 C8.76128516,11.9601131 9.14778906,12.1563943 9.63024219,12.3566717 C10.1126953,12.5572498 10.5625781,12.6572381 10.9796758,12.6572381 L10.9920078,12.6572381 L11.0045117,12.6572381 C11.4216953,12.6572381 11.8713203,12.5572498 12.3537734,12.3566717 C12.8363984,12.1563943 13.2226445,11.9601131 13.5130703,11.7679139 C13.8034961,11.5758436 14.1816641,11.3078045 14.647832,10.9644412 C16.038,9.95837091 18.0747187,8.54744903 20.757,6.73197638 Z" id="#path-messagesprovider"></path>
    </defs>
    <g id="Symbols" stroke="none" stroke-width="1" fill="none" fill-rule="evenodd">
        <g id="Icon_Messages" transform="translate(-24.000000, -21.000000)">
            <g id="Mask-Grey" transform="translate(24.000000, 21.000000)">
                <mask id="mask-2" fill="white">
                    <use xlink:href="##path-messagesprovider"></use>
                </mask>
                <use id="Messages" fill="#5A6F7F" xlink:href="##path-messagesprovider"></use>
            </g>
        </g>
    </g>
</svg>