<?xml version="1.0" encoding="UTF-8" standalone="no"?>
<svg width="32px" height="32px" viewBox="0 0 32 32" version="1.1" xmlns="http://www.w3.org/2000/svg" xmlns:xlink="http://www.w3.org/1999/xlink">
    <!-- Generator: sketchtool 43.2 (39069) - http://www.bohemiancoding.com/sketch -->
    <title>CB9E24C3-7B7B-4442-95A0-49DA263C309A</title>
    <desc>Created with sketchtool.</desc>
    <defs>
        <path d="M23.36416,26.25216 C23.51776,26.25216 23.67136,26.31056 23.78856,26.42776 L27.67056,30.31016 L30.20576,27.77496 L26.32336,23.89296 C26.21096,23.78016 26.14776,23.62736 26.14776,23.46856 C26.14776,23.30976 26.21096,23.15696 26.32336,23.04416 L28.05336,21.31456 L17.99536,18.14056 L21.16976,28.19816 L22.93976,26.42776 C23.05696,26.31056 23.21056,26.25216 23.36416,26.25216 M27.67056,31.75856 C27.51696,31.75856 27.36336,31.69976 27.24616,31.58256 L23.36416,27.70056 L21.31936,29.74536 C21.17136,29.89416 20.95576,29.95496 20.75256,29.90416 C20.54896,29.85456 20.38616,29.70176 20.32256,29.50176 L16.50376,17.40136 C16.43656,17.18816 16.49336,16.95496 16.65176,16.79656 C16.81016,16.63816 17.04376,16.58176 17.25616,16.64856 L29.35656,20.46776 C29.55656,20.53096 29.70936,20.69376 29.75896,20.89736 C29.80896,21.10096 29.74896,21.31616 29.60056,21.46416 L27.59616,23.46856 L31.47856,27.35056 C31.59096,27.46296 31.65456,27.61576 31.65456,27.77496 C31.65456,27.93376 31.59096,28.08656 31.47856,28.19896 L28.09456,31.58256 C27.97736,31.69976 27.82376,31.75856 27.67056,31.75856 Z M8.1878,12.79828 C7.8314,12.37028 7.475,11.69348 7.2162,10.89428 C6.7366,9.41188 6.7754,8.07188 7.303,7.90108 C7.4846,7.84228 7.7002,7.92988 7.925,8.13028 C7.6094,7.42628 7.4314,6.63508 7.4314,5.79868 C7.4314,2.86548 9.609,0.48788 12.295,0.48788 C12.311,0.48788 12.3266,0.48908 12.3426,0.48908 C12.6878,0.43148 13.0466,0.39988 13.4154,0.39988 C16.1074,0.39988 18.2894,2.02188 18.2894,4.02308 C18.2894,4.11428 18.2834,4.20428 18.2746,4.29388 C18.8794,4.90948 19.2794,5.97668 19.2794,7.19068 C19.2794,7.42868 19.2642,7.66108 19.235,7.88548 C19.2902,7.87988 19.3438,7.88468 19.3946,7.90108 C19.9222,8.07188 19.961,9.41188 19.481,10.89428 C19.2002,11.76228 18.8038,12.48628 18.4174,12.90308 C17.5682,15.41228 15.6058,17.16948 13.3198,17.16948 C11.0018,17.16948 9.017,15.36308 8.1878,12.79828 Z M16.61672,22.37456 L18.83472,29.68616 C17.22432,30.04776 15.49632,30.32936 13.44552,30.40016 C10.55112,30.49976 7.75872,30.06336 5.60912,29.25216 C4.62872,28.89416 4.47632,28.84536 3.28432,28.47696 C2.92432,28.36616 2.00432,27.86816 1.37792,27.59856 C0.58312,27.25656 -0.00288,26.71536 -7.99999996e-05,26.61056 C0.03992,25.11816 0.40872,23.95976 0.63152,23.38856 C0.75592,22.65256 1.12512,21.95176 1.69912,21.30696 C1.69912,21.30656 5.01192,18.63736 7.14312,17.79336 C7.43272,20.69456 10.10032,22.98376 13.37232,23.06936 C13.61192,24.31976 13.28552,25.39376 12.48832,25.86256 C11.59392,26.38816 10.29672,26.03376 9.02152,24.95336 C9.05152,24.82136 9.07072,24.68496 9.07072,24.54376 C9.07072,23.52216 8.24232,22.69376 7.22032,22.69376 C6.19872,22.69376 5.37032,23.52216 5.37032,24.54376 C5.37032,25.56536 6.19872,26.39376 7.22032,26.39376 C7.64672,26.39376 8.03432,26.24376 8.34712,26.00176 C9.42592,26.88376 10.53432,27.34776 11.54912,27.34776 C12.10592,27.34776 12.63472,27.20976 13.11392,26.92816 C14.33872,26.20896 14.89272,24.70376 14.61432,22.99336 C15.32832,22.88696 16.00232,22.67416 16.61672,22.37456 Z M15.35528,18.21656 L16.22408,21.08016 C15.39968,21.56136 14.41128,21.84216 13.34888,21.84216 C10.56328,21.84216 8.28808,19.91336 8.15088,17.49816 C8.16928,17.49216 8.18568,17.48616 8.20408,17.48016 C8.59968,17.35096 8.96928,17.23496 9.31768,17.12976 C10.31368,18.00616 11.72488,18.55656 13.29528,18.55656 C14.02608,18.55656 14.71888,18.43216 15.35528,18.21656 Z" id="path-refferal&authorizationprovider1"></path>
    </defs>
    <g id="Symbols" stroke="none" stroke-width="1" fill="none" fill-rule="evenodd">
        <g id="Icon_Referral-Decision-Support" transform="translate(-19.000000, -14.000000)">
            <g id="Mask-Grey" transform="translate(19.000000, 14.000000)">
                <mask id="mask-2" fill="white">
                    <use xlink:href="#path-refferal&authorizationprovider1"></use>
                </mask>
                <use id="Referral-Decision-Support" fill="#5A6F7F" xlink:href="#path-refferal&authorizationprovider1"></use>
            </g>
        </g>
    </g>
</svg>